<svg width="30" height="17" viewBox="0 0 30 17" fill="none" xmlns="http://www.w3.org/2000/svg">
<rect x="8.04" y="2.03" width="12.95" height="12.95" rx="0.25" fill="#364153"/>
<rect x="17.8" y="11.79" width="2.65" height="2.65" rx="0.2" fill="#FE9A00"/>
<path d="M18.906 13.6565C18.8844 13.6565 18.8653 13.65 18.8488 13.637C18.8324 13.624 18.8241 13.6036 18.8241 13.5759L18.8254 13.5616C18.835 13.4723 18.8462 13.3796 18.8592 13.2834C18.8731 13.1863 18.8848 13.1118 18.8943 13.0598L18.7929 13.0884L18.7773 13.091C18.7609 13.091 18.7479 13.0845 18.7383 13.0715C18.7288 13.0585 18.724 13.0438 18.724 13.0273L18.7253 13.0156C18.7271 12.9991 18.7323 12.9857 18.7409 12.9753C18.7496 12.9649 18.7661 12.9545 18.7903 12.9441C18.8155 12.9337 18.8527 12.9224 18.9021 12.9103L18.9567 12.8973C18.9767 12.893 18.9931 12.8908 19.0061 12.8908C19.0313 12.8908 19.0499 12.8973 19.062 12.9103C19.075 12.9233 19.0815 12.9415 19.0815 12.9649C19.0815 12.9753 19.0802 12.9866 19.0776 12.9987C19.0638 13.0663 19.0373 13.2587 18.9983 13.5759C18.9914 13.6296 18.9606 13.6565 18.906 13.6565ZM19.3948 13.6565C19.3731 13.6565 19.3541 13.65 19.3376 13.637C19.3211 13.624 19.3129 13.6036 19.3129 13.5759L19.3142 13.5616C19.3237 13.4723 19.335 13.3796 19.348 13.2834C19.3619 13.1863 19.3736 13.1118 19.3831 13.0598L19.2817 13.0884L19.2661 13.091C19.2496 13.091 19.2366 13.0845 19.2271 13.0715C19.2176 13.0585 19.2128 13.0438 19.2128 13.0273L19.2141 13.0156C19.2158 12.9991 19.221 12.9857 19.2297 12.9753C19.2384 12.9649 19.2548 12.9545 19.2791 12.9441C19.3042 12.9337 19.3415 12.9224 19.3909 12.9103L19.4455 12.8973C19.4654 12.893 19.4819 12.8908 19.4949 12.8908C19.52 12.8908 19.5387 12.8973 19.5508 12.9103C19.5638 12.9233 19.5703 12.9415 19.5703 12.9649C19.5703 12.9753 19.569 12.9866 19.5664 12.9987C19.5525 13.0663 19.5261 13.2587 19.4871 13.5759C19.4802 13.6296 19.4494 13.6565 19.3948 13.6565Z" fill="#1C1917"/>
<rect x="14.72" y="11.79" width="2.65" height="2.65" rx="0.2" fill="#101828"/>
<rect x="11.64" y="11.79" width="2.65" height="2.65" rx="0.2" fill="#FE9A00"/>
<path d="M13.2822 12.8934C13.2961 12.8934 13.3073 12.8999 13.316 12.9129C13.3255 12.925 13.3303 12.9437 13.3303 12.9688C13.3303 12.9922 13.3255 13.01 13.316 13.0221C13.3065 13.0334 13.2943 13.0438 13.2796 13.0533C13.2657 13.0628 13.2558 13.0698 13.2497 13.0741C13.1578 13.1374 13.0937 13.2097 13.0573 13.2912C13.0218 13.3727 13.0001 13.4598 12.9923 13.5525C12.9888 13.5889 12.9789 13.6153 12.9624 13.6318C12.9468 13.6483 12.9269 13.6565 12.9026 13.6565C12.8783 13.6565 12.858 13.6483 12.8415 13.6318C12.825 13.6145 12.8168 13.5846 12.8168 13.5421C12.8168 13.4927 12.8259 13.4385 12.8441 13.3796C12.8632 13.3198 12.8931 13.2604 12.9338 13.2015C12.9754 13.1426 13.0278 13.0901 13.0911 13.0442L12.7713 13.0494C12.7531 13.0494 12.7392 13.0433 12.7297 13.0312C12.7202 13.0191 12.7154 13.0039 12.7154 12.9857C12.7154 12.9632 12.7223 12.9432 12.7362 12.9259C12.7509 12.9077 12.7704 12.8986 12.7947 12.8986C12.8372 12.8986 12.8991 12.9016 12.9806 12.9077C12.9971 12.9086 13.0274 12.9103 13.0716 12.9129C13.1158 12.9155 13.1505 12.9168 13.1756 12.9168C13.1869 12.9168 13.2033 12.9129 13.225 12.9051C13.2293 12.9042 13.2376 12.9021 13.2497 12.8986C13.2627 12.8951 13.2735 12.8934 13.2822 12.8934Z" fill="#1C1917"/>
<rect x="8.56" y="11.79" width="2.65" height="2.65" rx="0.2" fill="#FE9A00"/>
<path d="M10.1551 13.5044C10.1733 13.5044 10.1871 13.5105 10.1967 13.5226C10.2062 13.5347 10.211 13.5499 10.211 13.5681C10.211 13.5906 10.2036 13.611 10.1889 13.6292C10.175 13.6465 10.1559 13.6552 10.1317 13.6552C10.0901 13.6552 10.0281 13.6522 9.94578 13.6461C9.92931 13.6452 9.89898 13.6435 9.85478 13.6409C9.81058 13.6383 9.77591 13.637 9.75078 13.637C9.73951 13.637 9.72305 13.6409 9.70138 13.6487C9.69705 13.6496 9.68838 13.6517 9.67538 13.6552C9.66325 13.6587 9.65285 13.6604 9.64418 13.6604C9.63031 13.6604 9.61861 13.6543 9.60908 13.6422C9.60041 13.6292 9.59608 13.6101 9.59608 13.585C9.59608 13.5573 9.60258 13.536 9.61558 13.5213C9.62858 13.5057 9.64895 13.4918 9.67668 13.4797C9.73561 13.4537 9.79108 13.4208 9.84308 13.3809C9.89595 13.3402 9.93798 13.2964 9.96918 13.2496C10.0012 13.2028 10.0173 13.1582 10.0173 13.1157C10.0173 13.0819 10.0095 13.0572 9.99388 13.0416C9.97915 13.0251 9.95531 13.0169 9.92238 13.0169C9.88425 13.0169 9.85348 13.0273 9.83008 13.0481C9.80755 13.0689 9.79628 13.0979 9.79628 13.1352C9.79628 13.1863 9.77071 13.2119 9.71958 13.2119C9.69531 13.2119 9.67625 13.205 9.66238 13.1911C9.64938 13.1772 9.64288 13.1573 9.64288 13.1313C9.64288 13.088 9.65415 13.0481 9.67668 13.0117C9.69921 12.9753 9.73301 12.9463 9.77808 12.9246C9.82315 12.9021 9.87818 12.8908 9.94318 12.8908C10.0212 12.8908 10.0823 12.9103 10.1265 12.9493C10.1707 12.9883 10.1928 13.0425 10.1928 13.1118C10.1928 13.1777 10.1637 13.2466 10.1057 13.3185C10.0485 13.3904 9.96571 13.4541 9.85738 13.5096L10.1551 13.5044Z" fill="#1C1917"/>
<rect x="17.8" y="8.71" width="2.65" height="2.65" rx="0.2" fill="#FE9A00"/>
<path d="M19.1728 9.9499C19.1476 9.9499 19.1294 9.95033 19.1182 9.9512C19.1069 9.98933 19.0943 10.0413 19.0805 10.1072C19.1923 10.1133 19.2772 10.1362 19.3353 10.1761C19.3933 10.216 19.4224 10.2701 19.4224 10.3386C19.4224 10.3837 19.4107 10.4244 19.3873 10.4608C19.3647 10.4963 19.3314 10.5245 19.2872 10.5453C19.243 10.5661 19.191 10.5765 19.1312 10.5765C19.0506 10.5765 18.9856 10.5609 18.9362 10.5297C18.8876 10.4985 18.8634 10.4565 18.8634 10.4036C18.8634 10.375 18.8699 10.3529 18.8829 10.3373C18.8967 10.3208 18.9158 10.3126 18.9401 10.3126C18.9591 10.3126 18.9739 10.3178 18.9843 10.3282C18.9947 10.3377 19.0033 10.3546 19.0103 10.3789C19.025 10.4318 19.0696 10.4582 19.1442 10.4582C19.1762 10.4582 19.2027 10.4487 19.2235 10.4296C19.2443 10.4097 19.2547 10.3854 19.2547 10.3568C19.2547 10.2805 19.1736 10.2398 19.0116 10.2346C18.9769 10.2337 18.9518 10.2281 18.9362 10.2177C18.9214 10.2073 18.9141 10.1913 18.9141 10.1696C18.9141 10.1592 18.9154 10.1484 18.918 10.1371L18.9323 10.0747C18.9375 10.0496 18.9461 10.011 18.9583 9.959H18.9557C18.9383 9.959 18.9245 9.9551 18.9141 9.9473C18.9037 9.93863 18.8985 9.92693 18.8985 9.9122C18.8985 9.86973 18.9193 9.842 18.9609 9.829C18.9999 9.81687 19.0701 9.8108 19.1715 9.8108C19.2443 9.8108 19.2971 9.8121 19.3301 9.8147C19.363 9.81643 19.3886 9.81947 19.4068 9.8238C19.4241 9.82813 19.4362 9.8342 19.4432 9.842C19.4501 9.84893 19.4536 9.85977 19.4536 9.8745C19.4536 9.90397 19.4475 9.9252 19.4354 9.9382C19.4241 9.95033 19.4046 9.9564 19.3769 9.9564C19.363 9.9564 19.3361 9.95553 19.2963 9.9538C19.2235 9.9512 19.1823 9.9499 19.1728 9.9499Z" fill="#1C1917"/>
<rect x="14.72" y="8.71" width="2.65" height="2.65" rx="0.2" fill="#FE9A00"/>
<path d="M15.734 10.5765C15.7123 10.5765 15.6933 10.57 15.6768 10.557C15.6603 10.544 15.6521 10.5236 15.6521 10.4959L15.6534 10.4816C15.6629 10.3923 15.6742 10.2996 15.6872 10.2034C15.7011 10.1063 15.7128 10.0318 15.7223 9.9798L15.6209 10.0084L15.6053 10.011C15.5888 10.011 15.5758 10.0045 15.5663 9.9915C15.5568 9.9785 15.552 9.96377 15.552 9.9473L15.5533 9.9356C15.555 9.91913 15.5602 9.9057 15.5689 9.8953C15.5776 9.8849 15.594 9.8745 15.6183 9.8641C15.6434 9.8537 15.6807 9.84243 15.7301 9.8303L15.7847 9.8173C15.8046 9.81297 15.8211 9.8108 15.8341 9.8108C15.8592 9.8108 15.8779 9.8173 15.89 9.8303C15.903 9.8433 15.9095 9.8615 15.9095 9.8849C15.9095 9.8953 15.9082 9.90657 15.9056 9.9187C15.8917 9.9863 15.8653 10.1787 15.8263 10.4959C15.8194 10.5496 15.7886 10.5765 15.734 10.5765ZM16.3372 9.9499C16.312 9.9499 16.2938 9.95033 16.2826 9.9512C16.2713 9.98933 16.2587 10.0413 16.2449 10.1072C16.3567 10.1133 16.4416 10.1362 16.4997 10.1761C16.5577 10.216 16.5868 10.2701 16.5868 10.3386C16.5868 10.3837 16.5751 10.4244 16.5517 10.4608C16.5291 10.4963 16.4958 10.5245 16.4516 10.5453C16.4074 10.5661 16.3554 10.5765 16.2956 10.5765C16.215 10.5765 16.15 10.5609 16.1006 10.5297C16.052 10.4985 16.0278 10.4565 16.0278 10.4036C16.0278 10.375 16.0343 10.3529 16.0473 10.3373C16.0611 10.3208 16.0802 10.3126 16.1045 10.3126C16.1235 10.3126 16.1383 10.3178 16.1487 10.3282C16.1591 10.3377 16.1677 10.3546 16.1747 10.3789C16.1894 10.4318 16.234 10.4582 16.3086 10.4582C16.3406 10.4582 16.3671 10.4487 16.3879 10.4296C16.4087 10.4097 16.4191 10.3854 16.4191 10.3568C16.4191 10.2805 16.338 10.2398 16.176 10.2346C16.1413 10.2337 16.1162 10.2281 16.1006 10.2177C16.0858 10.2073 16.0785 10.1913 16.0785 10.1696C16.0785 10.1592 16.0798 10.1484 16.0824 10.1371L16.0967 10.0747C16.1019 10.0496 16.1105 10.011 16.1227 9.959H16.1201C16.1027 9.959 16.0889 9.9551 16.0785 9.9473C16.0681 9.93863 16.0629 9.92693 16.0629 9.9122C16.0629 9.86973 16.0837 9.842 16.1253 9.829C16.1643 9.81687 16.2345 9.8108 16.3359 9.8108C16.4087 9.8108 16.4615 9.8121 16.4945 9.8147C16.5274 9.81643 16.553 9.81947 16.5712 9.8238C16.5885 9.82813 16.6006 9.8342 16.6076 9.842C16.6145 9.84893 16.618 9.85977 16.618 9.8745C16.618 9.90397 16.6119 9.9252 16.5998 9.9382C16.5885 9.95033 16.569 9.9564 16.5413 9.9564C16.5274 9.9564 16.5005 9.95553 16.4607 9.9538C16.3879 9.9512 16.3467 9.9499 16.3372 9.9499Z" fill="#1C1917"/>
<rect x="11.64" y="8.71" width="2.65" height="2.65" rx="0.2" fill="#FE9A00"/>
<path d="M12.6267 10.5765C12.605 10.5765 12.586 10.57 12.5695 10.557C12.553 10.544 12.5448 10.5236 12.5448 10.4959L12.5461 10.4816C12.5556 10.3923 12.5669 10.2996 12.5799 10.2034C12.5938 10.1063 12.6055 10.0318 12.615 9.9798L12.5136 10.0084L12.498 10.011C12.4815 10.011 12.4685 10.0045 12.459 9.9915C12.4495 9.9785 12.4447 9.96377 12.4447 9.9473L12.446 9.9356C12.4477 9.91913 12.4529 9.9057 12.4616 9.8953C12.4703 9.8849 12.4867 9.8745 12.511 9.8641C12.5361 9.8537 12.5734 9.84243 12.6228 9.8303L12.6774 9.8173C12.6973 9.81297 12.7138 9.8108 12.7268 9.8108C12.7519 9.8108 12.7706 9.8173 12.7827 9.8303C12.7957 9.8433 12.8022 9.8615 12.8022 9.8849C12.8022 9.8953 12.8009 9.90657 12.7983 9.9187C12.7844 9.9863 12.758 10.1787 12.719 10.4959C12.7121 10.5496 12.6813 10.5765 12.6267 10.5765ZM13.4795 10.4244C13.4977 10.4244 13.5115 10.4305 13.5211 10.4426C13.5306 10.4547 13.5354 10.4699 13.5354 10.4881C13.5354 10.5106 13.528 10.531 13.5133 10.5492C13.4994 10.5665 13.4803 10.5752 13.4561 10.5752C13.4145 10.5752 13.3525 10.5722 13.2702 10.5661C13.2537 10.5652 13.2234 10.5635 13.1792 10.5609C13.135 10.5583 13.1003 10.557 13.0752 10.557C13.0639 10.557 13.0474 10.5609 13.0258 10.5687C13.0214 10.5696 13.0128 10.5717 12.9998 10.5752C12.9876 10.5787 12.9772 10.5804 12.9686 10.5804C12.9547 10.5804 12.943 10.5743 12.9335 10.5622C12.9248 10.5492 12.9205 10.5301 12.9205 10.505C12.9205 10.4773 12.927 10.456 12.94 10.4413C12.953 10.4257 12.9733 10.4118 13.0011 10.3997C13.06 10.3737 13.1155 10.3408 13.1675 10.3009C13.2203 10.2602 13.2624 10.2164 13.2936 10.1696C13.3256 10.1228 13.3417 10.0782 13.3417 10.0357C13.3417 10.0019 13.3339 9.9772 13.3183 9.9616C13.3035 9.94513 13.2797 9.9369 13.2468 9.9369C13.2086 9.9369 13.1779 9.9473 13.1545 9.9681C13.1319 9.9889 13.1207 10.0179 13.1207 10.0552C13.1207 10.1063 13.0951 10.1319 13.044 10.1319C13.0197 10.1319 13.0006 10.125 12.9868 10.1111C12.9738 10.0972 12.9673 10.0773 12.9673 10.0513C12.9673 10.008 12.9785 9.9681 13.0011 9.9317C13.0236 9.8953 13.0574 9.86627 13.1025 9.8446C13.1475 9.82207 13.2026 9.8108 13.2676 9.8108C13.3456 9.8108 13.4067 9.8303 13.4509 9.8693C13.4951 9.9083 13.5172 9.96247 13.5172 10.0318C13.5172 10.0977 13.4881 10.1666 13.4301 10.2385C13.3729 10.3104 13.2901 10.3741 13.1818 10.4296L13.4795 10.4244Z" fill="#1C1917"/>
<rect x="8.56" y="8.71" width="2.65" height="2.65" rx="0.2" fill="#FE9A00"/>
<path d="M10.1736 10.2775C10.2195 10.2775 10.2425 10.297 10.2425 10.336C10.2425 10.3672 10.2338 10.3889 10.2165 10.401C10.1991 10.4131 10.1718 10.4192 10.1346 10.4192H10.1073L10.1021 10.4881C10.0995 10.528 10.0908 10.5548 10.0761 10.5687C10.0622 10.5826 10.0392 10.5895 10.0072 10.5895C9.96122 10.5895 9.93826 10.5613 9.93826 10.505C9.93826 10.4955 9.93869 10.4881 9.93956 10.4829L9.94606 10.4192C9.82039 10.4192 9.72506 10.4188 9.66006 10.4179C9.64099 10.4179 9.62409 10.4092 9.60936 10.3919C9.59462 10.3746 9.58726 10.352 9.58726 10.3243C9.58726 10.3078 9.59029 10.2905 9.59636 10.2723C9.63449 10.1614 9.69169 10.0353 9.76796 9.894C9.78442 9.86367 9.80089 9.84243 9.81736 9.8303C9.83469 9.8173 9.86112 9.8108 9.89666 9.8108C9.91572 9.8108 9.93002 9.81513 9.93956 9.8238C9.94996 9.83247 9.95516 9.84373 9.95516 9.8576C9.95516 9.87233 9.95082 9.88707 9.94216 9.9018C9.85722 10.0569 9.79742 10.1822 9.76276 10.2775H9.96296C9.97336 10.1969 9.98766 10.1202 10.0059 10.0474C10.0128 10.0205 10.0241 10.0002 10.0397 9.9863C10.0553 9.97157 10.0769 9.9642 10.1047 9.9642C10.1489 9.9642 10.171 9.98327 10.171 10.0214C10.171 10.0327 10.1701 10.0413 10.1684 10.0474C10.1528 10.1211 10.1389 10.1978 10.1268 10.2775H10.1736Z" fill="#1C1917"/>
<rect x="17.8" y="5.63" width="2.65" height="2.65" rx="0.2" fill="#FE9A00"/>
<path d="M19.2638 7.1195C19.308 7.12557 19.3448 7.14377 19.3743 7.1741C19.4046 7.20443 19.4198 7.24257 19.4198 7.2885C19.4198 7.3327 19.4064 7.3704 19.3795 7.4016C19.3526 7.4328 19.3162 7.45663 19.2703 7.4731C19.2252 7.4887 19.1758 7.4965 19.1221 7.4965C19.0276 7.4965 18.9566 7.48003 18.9089 7.4471C18.8621 7.41417 18.8387 7.373 18.8387 7.3236C18.8387 7.295 18.8456 7.2729 18.8595 7.2573C18.8734 7.24083 18.892 7.2326 18.9154 7.2326C18.9353 7.2326 18.9501 7.2378 18.9596 7.2482C18.97 7.25773 18.9787 7.27463 18.9856 7.2989C18.9917 7.3223 19.0042 7.34007 19.0233 7.3522C19.0424 7.36433 19.0718 7.3704 19.1117 7.3704C19.1498 7.3704 19.181 7.36347 19.2053 7.3496C19.2304 7.33487 19.243 7.31277 19.243 7.2833C19.243 7.25297 19.2313 7.23087 19.2079 7.217C19.1845 7.20227 19.1481 7.19403 19.0987 7.1923C19.0805 7.19143 19.0666 7.18537 19.0571 7.1741C19.0484 7.16197 19.0441 7.14767 19.0441 7.1312C19.0441 7.1104 19.0476 7.09567 19.0545 7.087C19.0623 7.07747 19.0753 7.07097 19.0935 7.0675C19.1507 7.05883 19.1919 7.04237 19.217 7.0181C19.243 6.99297 19.256 6.96307 19.256 6.9284C19.256 6.88073 19.2231 6.8569 19.1572 6.8569C19.0844 6.8569 19.0415 6.8855 19.0285 6.9427C19.0224 6.9661 19.0133 6.983 19.0012 6.9934C18.9899 7.00293 18.9739 7.0077 18.9531 7.0077C18.9297 7.0077 18.9115 7.0012 18.8985 6.9882C18.8864 6.97433 18.8803 6.95613 18.8803 6.9336C18.8803 6.89893 18.8924 6.866 18.9167 6.8348C18.941 6.8036 18.9752 6.77847 19.0194 6.7594C19.0645 6.74033 19.1169 6.7308 19.1767 6.7308C19.2599 6.7308 19.3236 6.74683 19.3678 6.7789C19.412 6.81097 19.4341 6.85863 19.4341 6.9219C19.4341 6.9635 19.4181 7.0025 19.386 7.0389C19.3548 7.07443 19.3141 7.1013 19.2638 7.1195Z" fill="#1C1917"/>
<rect x="14.72" y="5.63" width="2.65" height="2.65" rx="0.2" fill="#FE9A00"/>
<path d="M15.6953 7.4965C15.6736 7.4965 15.6545 7.49 15.6381 7.477C15.6216 7.464 15.6134 7.44363 15.6134 7.4159L15.6147 7.4016C15.6242 7.31233 15.6355 7.2196 15.6485 7.1234C15.6623 7.02633 15.674 6.9518 15.6836 6.8998L15.5822 6.9284L15.5666 6.931C15.5501 6.931 15.5371 6.9245 15.5276 6.9115C15.518 6.8985 15.5133 6.88377 15.5133 6.8673L15.5146 6.8556C15.5163 6.83913 15.5215 6.8257 15.5302 6.8153C15.5388 6.8049 15.5553 6.7945 15.5796 6.7841C15.6047 6.7737 15.642 6.76243 15.6914 6.7503L15.746 6.7373C15.7659 6.73297 15.7824 6.7308 15.7954 6.7308C15.8205 6.7308 15.8391 6.7373 15.8513 6.7503C15.8643 6.7633 15.8708 6.7815 15.8708 6.8049C15.8708 6.8153 15.8695 6.82657 15.8669 6.8387C15.853 6.9063 15.8266 7.0987 15.7876 7.4159C15.7806 7.46963 15.7499 7.4965 15.6953 7.4965ZM16.5779 7.1975C16.6239 7.1975 16.6468 7.217 16.6468 7.256C16.6468 7.2872 16.6382 7.30887 16.6208 7.321C16.6035 7.33313 16.5762 7.3392 16.5389 7.3392H16.5116L16.5064 7.4081C16.5038 7.44797 16.4952 7.47483 16.4804 7.4887C16.4666 7.50257 16.4436 7.5095 16.4115 7.5095C16.3656 7.5095 16.3426 7.48133 16.3426 7.425C16.3426 7.41547 16.3431 7.4081 16.3439 7.4029L16.3504 7.3392C16.2248 7.3392 16.1294 7.33877 16.0644 7.3379C16.0454 7.3379 16.0285 7.32923 16.0137 7.3119C15.999 7.29457 15.9916 7.27203 15.9916 7.2443C15.9916 7.22783 15.9947 7.2105 16.0007 7.1923C16.0389 7.08137 16.0961 6.95527 16.1723 6.814C16.1888 6.78367 16.2053 6.76243 16.2217 6.7503C16.2391 6.7373 16.2655 6.7308 16.301 6.7308C16.3201 6.7308 16.3344 6.73513 16.3439 6.7438C16.3543 6.75247 16.3595 6.76373 16.3595 6.7776C16.3595 6.79233 16.3552 6.80707 16.3465 6.8218C16.2616 6.97693 16.2018 7.10217 16.1671 7.1975H16.3673C16.3777 7.1169 16.392 7.0402 16.4102 6.9674C16.4172 6.94053 16.4284 6.92017 16.444 6.9063C16.4596 6.89157 16.4813 6.8842 16.509 6.8842C16.5532 6.8842 16.5753 6.90327 16.5753 6.9414C16.5753 6.95267 16.5745 6.96133 16.5727 6.9674C16.5571 7.04107 16.5433 7.11777 16.5311 7.1975H16.5779Z" fill="#1C1917"/>
<rect x="11.64" y="5.63" width="2.65" height="2.65" rx="0.2" fill="#FE9A00"/>
<path d="M13.0092 6.7308C13.0985 6.7308 13.1665 6.75897 13.2133 6.8153C13.261 6.87077 13.2848 6.9479 13.2848 7.0467C13.2848 7.1351 13.2697 7.21353 13.2393 7.282C13.2099 7.3496 13.1674 7.40247 13.1119 7.4406C13.0573 7.47787 12.9932 7.4965 12.9195 7.4965C12.8528 7.4965 12.7978 7.48133 12.7544 7.451C12.712 7.4198 12.6877 7.37907 12.6816 7.3288L12.6803 7.3145C12.6803 7.29197 12.6873 7.27463 12.7011 7.2625C12.7159 7.2495 12.7362 7.243 12.7622 7.243C12.7813 7.243 12.7965 7.2482 12.8077 7.2586C12.8199 7.26813 12.8303 7.28503 12.8389 7.3093C12.8459 7.3275 12.8571 7.3418 12.8727 7.3522C12.8892 7.3626 12.9096 7.3678 12.9338 7.3678C12.9841 7.3678 13.0248 7.3483 13.056 7.3093C13.0881 7.26943 13.108 7.2105 13.1158 7.1325C13.0933 7.1585 13.0677 7.17713 13.0391 7.1884C13.0105 7.1988 12.9789 7.204 12.9442 7.204C12.9009 7.204 12.8619 7.1949 12.8272 7.1767C12.7934 7.1585 12.767 7.13337 12.7479 7.1013C12.7289 7.06837 12.7193 7.03197 12.7193 6.9921C12.7193 6.9427 12.7306 6.8985 12.7531 6.8595C12.7765 6.81963 12.8099 6.78843 12.8532 6.7659C12.8974 6.7425 12.9494 6.7308 13.0092 6.7308ZM12.9832 7.074C13.0205 7.074 13.0495 7.0636 13.0703 7.0428C13.0911 7.022 13.1015 6.99427 13.1015 6.9596C13.1015 6.9284 13.0929 6.9037 13.0755 6.8855C13.0582 6.8673 13.0339 6.8582 13.0027 6.8582C12.9681 6.8582 12.9399 6.86947 12.9182 6.892C12.8974 6.91367 12.887 6.94227 12.887 6.9778C12.887 7.00727 12.8957 7.03067 12.913 7.048C12.9304 7.06533 12.9538 7.074 12.9832 7.074Z" fill="#1C1917"/>
<rect x="8.56" y="5.63" width="2.65" height="2.65" rx="0.2" fill="#FE9A00"/>
<path d="M9.55749 7.4965C9.53582 7.4965 9.51675 7.49 9.50029 7.477C9.48382 7.464 9.47559 7.44363 9.47559 7.4159L9.47689 7.4016C9.48642 7.31233 9.49769 7.2196 9.51069 7.1234C9.52455 7.02633 9.53625 6.9518 9.54579 6.8998L9.44439 6.9284L9.42879 6.931C9.41232 6.931 9.39932 6.9245 9.38979 6.9115C9.38025 6.8985 9.37549 6.88377 9.37549 6.8673L9.37679 6.8556C9.37852 6.83913 9.38372 6.8257 9.39239 6.8153C9.40105 6.8049 9.41752 6.7945 9.44179 6.7841C9.46692 6.7737 9.50419 6.76243 9.55359 6.7503L9.60819 6.7373C9.62812 6.73297 9.64459 6.7308 9.65759 6.7308C9.68272 6.7308 9.70135 6.7373 9.71349 6.7503C9.72649 6.7633 9.73299 6.7815 9.73299 6.8049C9.73299 6.8153 9.73169 6.82657 9.72909 6.8387C9.71522 6.9063 9.68879 7.0987 9.64979 7.4159C9.64285 7.46963 9.61209 7.4965 9.55749 7.4965ZM10.1243 7.4965C10.0393 7.4965 9.97346 7.46877 9.92666 7.4133C9.88072 7.35783 9.85776 7.27853 9.85776 7.1754C9.85776 7.08787 9.87119 7.01073 9.89806 6.944C9.92579 6.8764 9.96392 6.82397 10.0125 6.7867C10.0619 6.74943 10.1191 6.7308 10.1841 6.7308C10.269 6.7308 10.3344 6.75853 10.3804 6.814C10.4272 6.86947 10.4506 6.94877 10.4506 7.0519C10.4506 7.13943 10.4367 7.217 10.409 7.2846C10.3821 7.35133 10.344 7.40333 10.2946 7.4406C10.246 7.47787 10.1893 7.4965 10.1243 7.4965ZM10.1373 7.3509C10.1841 7.3509 10.2209 7.3249 10.2478 7.2729C10.2746 7.2209 10.2881 7.15027 10.2881 7.061C10.2881 7.0012 10.2781 6.9557 10.2582 6.9245C10.2382 6.89243 10.2092 6.8764 10.1711 6.8764C10.1243 6.8764 10.0874 6.90283 10.0606 6.9557C10.0337 7.0077 10.0203 7.07833 10.0203 7.1676C10.0203 7.2274 10.0298 7.2729 10.0489 7.3041C10.0688 7.3353 10.0983 7.3509 10.1373 7.3509Z" fill="#1C1917"/>
<rect x="17.8" y="2.56" width="2.65" height="2.65" rx="0.2" fill="#FE9A00"/>
<path d="M18.8127 4.4265C18.7911 4.4265 18.772 4.42 18.7555 4.407C18.7391 4.394 18.7308 4.37363 18.7308 4.3459L18.7321 4.3316C18.7417 4.24233 18.7529 4.1496 18.7659 4.0534C18.7798 3.95633 18.7915 3.8818 18.801 3.8298L18.6996 3.8584L18.684 3.861C18.6676 3.861 18.6546 3.8545 18.645 3.8415C18.6355 3.8285 18.6307 3.81377 18.6307 3.7973L18.632 3.7856C18.6338 3.76913 18.639 3.7557 18.6476 3.7453C18.6563 3.7349 18.6728 3.7245 18.697 3.7141C18.7222 3.7037 18.7594 3.69243 18.8088 3.6803L18.8634 3.6673C18.8834 3.66297 18.8998 3.6608 18.9128 3.6608C18.938 3.6608 18.9566 3.6673 18.9687 3.6803C18.9817 3.6933 18.9882 3.7115 18.9882 3.7349C18.9882 3.7453 18.9869 3.75657 18.9843 3.7687C18.9705 3.8363 18.944 4.0287 18.905 4.3459C18.8981 4.39963 18.8673 4.4265 18.8127 4.4265ZM19.5082 4.0495C19.5524 4.05557 19.5892 4.07377 19.6187 4.1041C19.649 4.13443 19.6642 4.17257 19.6642 4.2185C19.6642 4.2627 19.6508 4.3004 19.6239 4.3316C19.597 4.3628 19.5606 4.38663 19.5147 4.4031C19.4696 4.4187 19.4202 4.4265 19.3665 4.4265C19.272 4.4265 19.201 4.41003 19.1533 4.3771C19.1065 4.34417 19.0831 4.303 19.0831 4.2536C19.0831 4.225 19.09 4.2029 19.1039 4.1873C19.1178 4.17083 19.1364 4.1626 19.1598 4.1626C19.1797 4.1626 19.1945 4.1678 19.204 4.1782C19.2144 4.18773 19.2231 4.20463 19.23 4.2289C19.2361 4.2523 19.2486 4.27007 19.2677 4.2822C19.2868 4.29433 19.3162 4.3004 19.3561 4.3004C19.3942 4.3004 19.4254 4.29347 19.4497 4.2796C19.4748 4.26487 19.4874 4.24277 19.4874 4.2133C19.4874 4.18297 19.4757 4.16087 19.4523 4.147C19.4289 4.13227 19.3925 4.12403 19.3431 4.1223C19.3249 4.12143 19.311 4.11537 19.3015 4.1041C19.2928 4.09197 19.2885 4.07767 19.2885 4.0612C19.2885 4.0404 19.292 4.02567 19.2989 4.017C19.3067 4.00747 19.3197 4.00097 19.3379 3.9975C19.3951 3.98883 19.4363 3.97237 19.4614 3.9481C19.4874 3.92297 19.5004 3.89307 19.5004 3.8584C19.5004 3.81073 19.4675 3.7869 19.4016 3.7869C19.3288 3.7869 19.2859 3.8155 19.2729 3.8727C19.2668 3.8961 19.2577 3.913 19.2456 3.9234C19.2343 3.93293 19.2183 3.9377 19.1975 3.9377C19.1741 3.9377 19.1559 3.9312 19.1429 3.9182C19.1308 3.90433 19.1247 3.88613 19.1247 3.8636C19.1247 3.82893 19.1368 3.796 19.1611 3.7648C19.1854 3.7336 19.2196 3.70847 19.2638 3.6894C19.3089 3.67033 19.3613 3.6608 19.4211 3.6608C19.5043 3.6608 19.568 3.67683 19.6122 3.7089C19.6564 3.74097 19.6785 3.78863 19.6785 3.8519C19.6785 3.8935 19.6625 3.9325 19.6304 3.9689C19.5992 4.00443 19.5585 4.0313 19.5082 4.0495Z" fill="#1C1917"/>
<rect x="14.72" y="2.56" width="2.65" height="2.65" rx="0.2" fill="#FE9A00"/>
<path d="M16.0704 4.4265C16.0488 4.4265 16.0297 4.42 16.0132 4.407C15.9968 4.394 15.9885 4.37363 15.9885 4.3459L15.9898 4.3316C15.9994 4.24233 16.0106 4.1496 16.0236 4.0534C16.0375 3.95633 16.0492 3.8818 16.0587 3.8298L15.9573 3.8584L15.9417 3.861C15.9253 3.861 15.9123 3.8545 15.9027 3.8415C15.8932 3.8285 15.8884 3.81377 15.8884 3.7973L15.8897 3.7856C15.8915 3.76913 15.8967 3.7557 15.9053 3.7453C15.914 3.7349 15.9305 3.7245 15.9547 3.7141C15.9799 3.7037 16.0171 3.69243 16.0665 3.6803L16.1211 3.6673C16.1411 3.66297 16.1575 3.6608 16.1705 3.6608C16.1957 3.6608 16.2143 3.6673 16.2264 3.6803C16.2394 3.6933 16.2459 3.7115 16.2459 3.7349C16.2459 3.7453 16.2446 3.75657 16.242 3.7687C16.2282 3.8363 16.2017 4.0287 16.1627 4.3459C16.1558 4.39963 16.125 4.4265 16.0704 4.4265Z" fill="#1C1917"/>
<rect x="11.64" y="2.56" width="2.65" height="2.65" rx="0.2" fill="#FE9A00"/>
<path d="M13.1388 4.0339C13.2237 4.07723 13.2662 4.1353 13.2662 4.2081C13.2662 4.25143 13.2536 4.28957 13.2285 4.3225C13.2042 4.35543 13.1696 4.381 13.1245 4.3992C13.0794 4.4174 13.027 4.4265 12.9672 4.4265C12.8831 4.4265 12.8173 4.41003 12.7696 4.3771C12.7228 4.34417 12.6994 4.29823 12.6994 4.2393C12.6994 4.20203 12.7107 4.1678 12.7332 4.1366C12.7557 4.1054 12.7921 4.07637 12.8424 4.0495C12.8112 4.0287 12.7874 4.004 12.7709 3.9754C12.7553 3.94593 12.7475 3.91517 12.7475 3.8831C12.7475 3.81377 12.7735 3.7596 12.8255 3.7206C12.8775 3.68073 12.9481 3.6608 13.0374 3.6608C13.1111 3.6608 13.17 3.67683 13.2142 3.7089C13.2593 3.74097 13.2818 3.7843 13.2818 3.8389C13.2818 3.87877 13.2705 3.91473 13.248 3.9468C13.2255 3.978 13.1891 4.00703 13.1388 4.0339ZM13.027 3.7869C12.9906 3.7869 12.9616 3.7947 12.9399 3.8103C12.9182 3.82503 12.9074 3.8467 12.9074 3.8753C12.9074 3.9143 12.9403 3.94897 13.0062 3.9793C13.0504 3.95763 13.0812 3.93727 13.0985 3.9182C13.1167 3.89913 13.1258 3.8792 13.1258 3.8584C13.1258 3.81073 13.0929 3.7869 13.027 3.7869ZM12.9737 4.3004C13.0144 4.3004 13.0465 4.29347 13.0699 4.2796C13.0933 4.26573 13.105 4.24667 13.105 4.2224C13.105 4.20333 13.0946 4.18513 13.0738 4.1678C13.0539 4.15047 13.0166 4.12967 12.962 4.1054C12.9221 4.1236 12.8944 4.14223 12.8788 4.1613C12.8632 4.18037 12.8554 4.20117 12.8554 4.2237C12.8554 4.24797 12.8658 4.26703 12.8866 4.2809C12.9083 4.2939 12.9373 4.3004 12.9737 4.3004Z" fill="#1C1917"/>
<rect x="8.56" y="2.56" width="2.65" height="2.65" rx="0.2" fill="#FE9A00"/>
<path d="M9.96434 3.7895C9.91407 3.7895 9.87291 3.80943 9.84084 3.8493C9.80964 3.8883 9.79014 3.9468 9.78234 4.0248C9.80487 3.9988 9.83044 3.9806 9.85904 3.9702C9.88764 3.95893 9.91927 3.9533 9.95394 3.9533C9.99727 3.9533 10.0358 3.9624 10.0696 3.9806C10.1043 3.9988 10.1312 4.02437 10.1502 4.0573C10.1693 4.08937 10.1788 4.12533 10.1788 4.1652C10.1788 4.2146 10.1671 4.25923 10.1437 4.2991C10.1212 4.3381 10.0878 4.3693 10.0436 4.3927C10.0003 4.41523 9.94874 4.4265 9.88894 4.4265C9.79967 4.4265 9.73121 4.39877 9.68354 4.3433C9.63674 4.28697 9.61334 4.2094 9.61334 4.1106C9.61334 4.0222 9.62807 3.9442 9.65754 3.8766C9.68787 3.80813 9.73034 3.75527 9.78494 3.718C9.84041 3.67987 9.90497 3.6608 9.97864 3.6608C10.0454 3.6608 10.1 3.6764 10.1424 3.7076C10.1858 3.73793 10.2105 3.77823 10.2165 3.8285L10.2178 3.8428C10.2178 3.86533 10.2105 3.8831 10.1957 3.8961C10.1819 3.90823 10.1619 3.9143 10.1359 3.9143C10.1169 3.9143 10.1013 3.90953 10.0891 3.9C10.0779 3.8896 10.0679 3.87227 10.0592 3.848C10.0523 3.8298 10.0406 3.8155 10.0241 3.8051C10.0085 3.7947 9.98861 3.7895 9.96434 3.7895ZM9.91494 4.0833C9.87767 4.0833 9.84864 4.0937 9.82784 4.1145C9.80704 4.1353 9.79664 4.16303 9.79664 4.1977C9.79664 4.2289 9.80531 4.2536 9.82264 4.2718C9.83997 4.29 9.86424 4.2991 9.89544 4.2991C9.93011 4.2991 9.95784 4.28827 9.97864 4.2666C10.0003 4.24407 10.0111 4.21503 10.0111 4.1795C10.0111 4.15003 10.0025 4.12663 9.98514 4.1093C9.96781 4.09197 9.94441 4.0833 9.91494 4.0833Z" fill="#1C1917"/>
</svg>
