<svg width="30" height="17" viewBox="0 0 30 17" fill="none" xmlns="http://www.w3.org/2000/svg">
<rect x="8" y="2" width="13" height="13" rx="0.2" fill="#737373"/>
<rect x="17.8" y="11.8" width="2.67" height="2.67" rx="0.15" fill="#F2B179"/>
<path d="M19.14 13.5727C19.0807 13.5727 19.0282 13.5659 18.9825 13.5524C18.9376 13.538 18.9 13.5185 18.8695 13.494C18.839 13.4686 18.8161 13.4394 18.8009 13.4063C18.7857 13.3725 18.778 13.3356 18.778 13.2958C18.778 13.2476 18.7899 13.2057 18.8136 13.1701C18.8373 13.1346 18.8674 13.107 18.9038 13.0876C18.8741 13.0681 18.8509 13.0435 18.8339 13.0139C18.8178 12.9834 18.8098 12.9483 18.8098 12.9085C18.8098 12.8602 18.8221 12.8175 18.8466 12.7802C18.8712 12.743 18.9076 12.7133 18.9558 12.6913C19.0049 12.6693 19.0663 12.6583 19.14 12.6583C19.2128 12.6583 19.2733 12.6693 19.3216 12.6913C19.3699 12.7125 19.4063 12.7417 19.4308 12.779C19.4554 12.8162 19.4676 12.859 19.4676 12.9072C19.4676 12.947 19.4596 12.9822 19.4435 13.0126C19.4274 13.0431 19.4046 13.0681 19.3749 13.0876C19.4139 13.1062 19.4448 13.1337 19.4676 13.1701C19.4905 13.2065 19.5019 13.2489 19.5019 13.2971C19.5019 13.3496 19.4884 13.3966 19.4613 13.4381C19.4342 13.4796 19.3936 13.5126 19.3394 13.5371C19.2852 13.5608 19.2187 13.5727 19.14 13.5727ZM19.14 13.4267C19.1696 13.4267 19.1967 13.4216 19.2213 13.4114C19.2458 13.4004 19.2649 13.3852 19.2784 13.3657C19.2928 13.3462 19.3 13.3234 19.3 13.2971C19.3 13.27 19.2928 13.2472 19.2784 13.2285C19.2649 13.2091 19.2458 13.1942 19.2213 13.1841C19.1967 13.1731 19.1696 13.1676 19.14 13.1676C19.1095 13.1676 19.082 13.1731 19.0574 13.1841C19.0337 13.1942 19.0147 13.2091 19.0003 13.2285C18.9859 13.2472 18.9787 13.27 18.9787 13.2971C18.9787 13.3234 18.9859 13.3462 19.0003 13.3657C19.0147 13.3852 19.0337 13.4004 19.0574 13.4114C19.082 13.4216 19.1095 13.4267 19.14 13.4267ZM19.14 13.0291C19.1662 13.0283 19.1899 13.0232 19.2111 13.0139C19.2323 13.0046 19.2492 12.9919 19.2619 12.9758C19.2746 12.9589 19.281 12.9394 19.281 12.9174C19.281 12.8945 19.2746 12.875 19.2619 12.859C19.2501 12.842 19.2335 12.8289 19.2124 12.8196C19.1912 12.8103 19.1671 12.8056 19.14 12.8056C19.1129 12.8056 19.0883 12.8103 19.0663 12.8196C19.0452 12.8289 19.0287 12.842 19.0168 12.859C19.0049 12.875 18.999 12.8945 18.999 12.9174C18.999 12.9402 19.0049 12.9601 19.0168 12.9771C19.0287 12.9932 19.0452 13.0059 19.0663 13.0152C19.0883 13.0245 19.1129 13.0291 19.14 13.0291Z" fill="#F9F6F2"/>
<rect x="14.72" y="11.8" width="2.67" height="2.67" rx="0.15" fill="#EEE4DA"/>
<path d="M15.7439 13.56C15.7346 13.56 15.727 13.557 15.721 13.5511C15.7151 13.5452 15.7122 13.5376 15.7122 13.5283V13.4521C15.7122 13.4453 15.7138 13.4364 15.7172 13.4254C15.7215 13.4135 15.7304 13.4021 15.7439 13.3911L15.9115 13.2247C15.9733 13.1773 16.0233 13.1371 16.0614 13.1041C16.1003 13.0711 16.1291 13.041 16.1478 13.0139C16.1664 12.9868 16.1757 12.9606 16.1757 12.9352C16.1757 12.9021 16.1664 12.875 16.1478 12.8539C16.13 12.8319 16.1008 12.8209 16.0601 12.8209C16.033 12.8209 16.0102 12.8268 15.9916 12.8386C15.9738 12.8496 15.9598 12.8645 15.9496 12.8831C15.9395 12.9017 15.9327 12.922 15.9293 12.9441C15.9268 12.9551 15.9213 12.9627 15.9128 12.9669C15.9052 12.9711 15.8971 12.9733 15.8887 12.9733H15.7541C15.7456 12.9733 15.7388 12.9707 15.7337 12.9656C15.7287 12.9597 15.7261 12.9534 15.7261 12.9466C15.727 12.9076 15.735 12.8708 15.7503 12.8361C15.7663 12.8014 15.7888 12.7705 15.8176 12.7434C15.8463 12.7163 15.8811 12.6951 15.9217 12.6799C15.9623 12.6638 16.0085 12.6558 16.0601 12.6558C16.1313 12.6558 16.1909 12.6676 16.2392 12.6913C16.2875 12.7142 16.3239 12.7459 16.3484 12.7866C16.373 12.8272 16.3853 12.8742 16.3853 12.9275C16.3853 12.9682 16.3768 13.0059 16.3599 13.0406C16.3438 13.0753 16.3201 13.1087 16.2887 13.1409C16.2574 13.1722 16.2202 13.2048 16.177 13.2387L16.0271 13.3886H16.3726C16.3819 13.3886 16.3895 13.3915 16.3954 13.3974C16.4013 13.4034 16.4043 13.411 16.4043 13.4203V13.5283C16.4043 13.5376 16.4013 13.5452 16.3954 13.5511C16.3895 13.557 16.3819 13.56 16.3726 13.56H15.7439Z" fill="#988876"/>
<rect x="11.61" y="11.8" width="2.67" height="2.67" rx="0.15" fill="#F59563"/>
<path d="M12.603 13.56C12.5945 13.56 12.5869 13.557 12.5801 13.5511C12.5742 13.5452 12.5713 13.5376 12.5713 13.5282V12.8971L12.3884 13.038C12.3808 13.044 12.3727 13.0461 12.3642 13.0444C12.3566 13.0427 12.3498 13.038 12.3439 13.0304L12.2804 12.9479C12.2753 12.9402 12.2732 12.9322 12.2741 12.9237C12.2758 12.9153 12.2804 12.9085 12.288 12.9034L12.5776 12.6799C12.5827 12.6765 12.5873 12.6744 12.5916 12.6735C12.5967 12.6718 12.6022 12.671 12.6081 12.671H12.7427C12.7512 12.671 12.7584 12.674 12.7643 12.6799C12.7702 12.6858 12.7732 12.6934 12.7732 12.7027V13.5282C12.7732 13.5376 12.7702 13.5452 12.7643 13.5511C12.7584 13.557 12.7512 13.56 12.7427 13.56H12.603ZM13.2717 13.5727C13.1972 13.5727 13.1324 13.5592 13.0774 13.5321C13.0232 13.505 12.9808 13.4677 12.9504 13.4203C12.9207 13.372 12.9059 13.3179 12.9059 13.2577C12.9059 13.2323 12.9097 13.2069 12.9173 13.1815C12.925 13.1561 12.9343 13.1324 12.9453 13.1104C12.9563 13.0876 12.9673 13.0672 12.9783 13.0495C12.9902 13.0317 12.9999 13.0173 13.0075 13.0063L13.2361 12.6964C13.2404 12.6922 13.2459 12.6871 13.2526 12.6812C13.2594 12.6744 13.2687 12.671 13.2806 12.671H13.4228C13.4304 12.671 13.4368 12.674 13.4419 12.6799C13.4469 12.685 13.4495 12.6913 13.4495 12.6989C13.4495 12.7023 13.4491 12.7057 13.4482 12.7091C13.4474 12.7116 13.4461 12.7138 13.4444 12.7154L13.2691 12.9555C13.2759 12.9538 13.2835 12.9525 13.292 12.9517C13.3013 12.9508 13.3094 12.9504 13.3161 12.9504C13.3568 12.9521 13.3957 12.9606 13.433 12.9758C13.4711 12.991 13.5049 13.0122 13.5346 13.0393C13.5642 13.0655 13.5875 13.0969 13.6044 13.1333C13.6222 13.1697 13.6311 13.2103 13.6311 13.2552C13.6311 13.3119 13.6163 13.3644 13.5866 13.4127C13.5579 13.4609 13.5164 13.4999 13.4622 13.5295C13.4088 13.5583 13.3453 13.5727 13.2717 13.5727ZM13.2691 13.4089C13.2971 13.4089 13.3229 13.4034 13.3466 13.3924C13.3703 13.3805 13.3894 13.3631 13.4038 13.3403C13.4182 13.3174 13.4253 13.2899 13.4253 13.2577C13.4253 13.2247 13.4182 13.1972 13.4038 13.1752C13.3894 13.1523 13.3703 13.1354 13.3466 13.1244C13.3229 13.1125 13.2971 13.1066 13.2691 13.1066C13.2412 13.1066 13.2154 13.1125 13.1917 13.1244C13.168 13.1354 13.1489 13.1523 13.1345 13.1752C13.1201 13.1972 13.1129 13.2247 13.1129 13.2577C13.1129 13.2899 13.1201 13.3174 13.1345 13.3403C13.1498 13.3631 13.1688 13.3805 13.1917 13.3924C13.2154 13.4034 13.2412 13.4089 13.2691 13.4089Z" fill="#F9F6F2"/>
<rect x="8.52" y="11.8" width="2.67" height="2.67" rx="0.15" fill="#EEE4DA"/>
<path d="M9.5439 13.56C9.53459 13.56 9.52697 13.557 9.52104 13.5511C9.51512 13.5452 9.51215 13.5376 9.51215 13.5283V13.4521C9.51215 13.4453 9.51385 13.4364 9.51723 13.4254C9.52147 13.4135 9.53036 13.4021 9.5439 13.3911L9.71154 13.2247C9.77335 13.1773 9.8233 13.1371 9.8614 13.1041C9.90035 13.0711 9.92914 13.041 9.94776 13.0139C9.96639 12.9868 9.9757 12.9606 9.9757 12.9352C9.9757 12.9021 9.96639 12.875 9.94776 12.8539C9.92998 12.8319 9.90077 12.8209 9.86013 12.8209C9.83304 12.8209 9.81018 12.8268 9.79155 12.8386C9.77377 12.8496 9.7598 12.8645 9.74964 12.8831C9.73948 12.9017 9.73271 12.922 9.72932 12.9441C9.72678 12.9551 9.72128 12.9627 9.71281 12.9669C9.70519 12.9711 9.69715 12.9733 9.68868 12.9733H9.55406C9.5456 12.9733 9.53882 12.9707 9.53374 12.9656C9.52866 12.9597 9.52612 12.9534 9.52612 12.9466C9.52697 12.9076 9.53501 12.8708 9.55025 12.8361C9.56634 12.8014 9.58878 12.7705 9.61756 12.7434C9.64635 12.7163 9.68106 12.6951 9.7217 12.6799C9.76234 12.6638 9.80849 12.6558 9.86013 12.6558C9.93125 12.6558 9.99094 12.6676 10.0392 12.6913C10.0875 12.7142 10.1239 12.7459 10.1484 12.7866C10.173 12.8272 10.1853 12.8742 10.1853 12.9275C10.1853 12.9682 10.1768 13.0059 10.1599 13.0406C10.1438 13.0753 10.1201 13.1087 10.0887 13.1409C10.0574 13.1722 10.0202 13.2048 9.97697 13.2387L9.82711 13.3886H10.1726C10.1819 13.3886 10.1895 13.3915 10.1954 13.3974C10.2013 13.4034 10.2043 13.411 10.2043 13.4203V13.5283C10.2043 13.5376 10.2013 13.5452 10.1954 13.5511C10.1895 13.557 10.1819 13.56 10.1726 13.56H9.5439Z" fill="#988876"/>
<rect x="17.8" y="8.7" width="2.67" height="2.67" rx="0.15" fill="#F2B179"/>
<path d="M19.14 10.4727C19.0807 10.4727 19.0282 10.4659 18.9825 10.4524C18.9376 10.438 18.9 10.4185 18.8695 10.394C18.839 10.3686 18.8161 10.3393 18.8009 10.3063C18.7857 10.2725 18.778 10.2356 18.778 10.1958C18.778 10.1476 18.7899 10.1057 18.8136 10.0701C18.8373 10.0345 18.8674 10.007 18.9038 9.98756C18.8741 9.96809 18.8509 9.94353 18.8339 9.9139C18.8178 9.88342 18.8098 9.84828 18.8098 9.80849C18.8098 9.76023 18.8221 9.71747 18.8466 9.68022C18.8712 9.64297 18.9076 9.61333 18.9558 9.59132C19.0049 9.56931 19.0663 9.5583 19.14 9.5583C19.2128 9.5583 19.2733 9.56931 19.3216 9.59132C19.3699 9.61249 19.4063 9.6417 19.4308 9.67895C19.4554 9.7162 19.4676 9.75896 19.4676 9.80722C19.4676 9.84701 19.4596 9.88215 19.4435 9.91263C19.4274 9.94311 19.4046 9.96809 19.3749 9.98756C19.4139 10.0062 19.4448 10.0337 19.4676 10.0701C19.4905 10.1065 19.5019 10.1488 19.5019 10.1971C19.5019 10.2496 19.4884 10.2966 19.4613 10.3381C19.4342 10.3796 19.3936 10.4126 19.3394 10.4371C19.2852 10.4608 19.2187 10.4727 19.14 10.4727ZM19.14 10.3266C19.1696 10.3266 19.1967 10.3216 19.2213 10.3114C19.2458 10.3004 19.2649 10.2852 19.2784 10.2657C19.2928 10.2462 19.3 10.2234 19.3 10.1971C19.3 10.17 19.2928 10.1472 19.2784 10.1285C19.2649 10.1091 19.2458 10.0942 19.2213 10.0841C19.1967 10.0731 19.1696 10.0676 19.14 10.0676C19.1095 10.0676 19.082 10.0731 19.0574 10.0841C19.0337 10.0942 19.0147 10.1091 19.0003 10.1285C18.9859 10.1472 18.9787 10.17 18.9787 10.1971C18.9787 10.2234 18.9859 10.2462 19.0003 10.2657C19.0147 10.2852 19.0337 10.3004 19.0574 10.3114C19.082 10.3216 19.1095 10.3266 19.14 10.3266ZM19.14 9.92914C19.1662 9.92829 19.1899 9.92321 19.2111 9.9139C19.2323 9.90459 19.2492 9.89189 19.2619 9.8758C19.2746 9.85887 19.281 9.83939 19.281 9.81738C19.281 9.79452 19.2746 9.77505 19.2619 9.75896C19.2501 9.74203 19.2335 9.7289 19.2124 9.71959C19.1912 9.71028 19.1671 9.70562 19.14 9.70562C19.1129 9.70562 19.0883 9.71028 19.0663 9.71959C19.0452 9.7289 19.0287 9.74203 19.0168 9.75896C19.0049 9.77505 18.999 9.79452 18.999 9.81738C18.999 9.84024 19.0049 9.86014 19.0168 9.87707C19.0287 9.89316 19.0452 9.90586 19.0663 9.91517C19.0883 9.92448 19.1129 9.92914 19.14 9.92914Z" fill="#F9F6F2"/>
<rect x="14.72" y="8.7" width="2.67" height="2.67" rx="0.15" fill="#F59563"/>
<path d="M15.713 10.46C15.7045 10.46 15.6969 10.457 15.6901 10.4511C15.6842 10.4452 15.6813 10.4376 15.6813 10.4282V9.79706L15.4984 9.93803C15.4908 9.94395 15.4827 9.94607 15.4742 9.94438C15.4666 9.94268 15.4599 9.93803 15.4539 9.93041L15.3904 9.84786C15.3853 9.84024 15.3832 9.83219 15.3841 9.82373C15.3858 9.81526 15.3904 9.80849 15.398 9.80341L15.6876 9.57989C15.6927 9.5765 15.6973 9.57438 15.7016 9.57354C15.7067 9.57184 15.7122 9.571 15.7181 9.571H15.8527C15.8612 9.571 15.8684 9.57396 15.8743 9.57989C15.8802 9.58581 15.8832 9.59343 15.8832 9.60275V10.4282C15.8832 10.4376 15.8802 10.4452 15.8743 10.4511C15.8684 10.457 15.8612 10.46 15.8527 10.46H15.713ZM16.3817 10.4727C16.3072 10.4727 16.2424 10.4592 16.1874 10.4321C16.1332 10.405 16.0908 10.3677 16.0604 10.3203C16.0307 10.272 16.0159 10.2179 16.0159 10.1577C16.0159 10.1323 16.0197 10.1069 16.0273 10.0815C16.035 10.0561 16.0443 10.0324 16.0553 10.0104C16.0663 9.98756 16.0773 9.96724 16.0883 9.94946C16.1002 9.93168 16.1099 9.91728 16.1175 9.90628L16.3461 9.5964C16.3504 9.59216 16.3559 9.58708 16.3626 9.58116C16.3694 9.57438 16.3787 9.571 16.3906 9.571H16.5328C16.5404 9.571 16.5468 9.57396 16.5519 9.57989C16.5569 9.58497 16.5595 9.59132 16.5595 9.59894C16.5595 9.60232 16.5591 9.60571 16.5582 9.6091C16.5574 9.61164 16.5561 9.61375 16.5544 9.61545L16.3791 9.85548C16.3859 9.85378 16.3935 9.85251 16.402 9.85167C16.4113 9.85082 16.4194 9.8504 16.4261 9.8504C16.4668 9.85209 16.5057 9.86056 16.543 9.8758C16.5811 9.89104 16.6149 9.9122 16.6446 9.9393C16.6742 9.96554 16.6975 9.99687 16.7144 10.0333C16.7322 10.0697 16.7411 10.1103 16.7411 10.1552C16.7411 10.2119 16.7263 10.2644 16.6966 10.3127C16.6679 10.3609 16.6264 10.3999 16.5722 10.4295C16.5188 10.4583 16.4553 10.4727 16.3817 10.4727ZM16.3791 10.3089C16.4071 10.3089 16.4329 10.3034 16.4566 10.2924C16.4803 10.2805 16.4994 10.2631 16.5138 10.2403C16.5282 10.2174 16.5353 10.1899 16.5353 10.1577C16.5353 10.1247 16.5282 10.0972 16.5138 10.0752C16.4994 10.0523 16.4803 10.0354 16.4566 10.0244C16.4329 10.0125 16.4071 10.0066 16.3791 10.0066C16.3512 10.0066 16.3254 10.0125 16.3017 10.0244C16.278 10.0354 16.2589 10.0523 16.2445 10.0752C16.2301 10.0972 16.2229 10.1247 16.2229 10.1577C16.2229 10.1899 16.2301 10.2174 16.2445 10.2403C16.2598 10.2631 16.2788 10.2805 16.3017 10.2924C16.3254 10.3034 16.3512 10.3089 16.3791 10.3089Z" fill="#F9F6F2"/>
<rect x="11.61" y="8.7" width="2.67" height="2.67" rx="0.15" fill="#EDE0C8"/>
<path d="M13.0343 10.46C13.0258 10.46 13.0186 10.457 13.0127 10.4511C13.0068 10.4452 13.0038 10.4376 13.0038 10.4283V10.2759H12.6038C12.5953 10.2759 12.5881 10.2729 12.5822 10.267C12.5763 10.261 12.5733 10.2534 12.5733 10.2441V10.1412C12.5733 10.1353 12.5746 10.129 12.5771 10.1222C12.5796 10.1154 12.583 10.1091 12.5873 10.1031L12.9594 9.59259C12.9704 9.5782 12.986 9.571 13.0064 9.571H13.1677C13.1761 9.571 13.1833 9.57396 13.1892 9.57989C13.1952 9.58582 13.1981 9.59344 13.1981 9.60275V10.1069H13.3112C13.3213 10.1069 13.3289 10.1099 13.334 10.1158C13.34 10.1218 13.3429 10.129 13.3429 10.1374V10.2441C13.3429 10.2534 13.34 10.261 13.334 10.267C13.3281 10.2729 13.3209 10.2759 13.3124 10.2759H13.1981V10.4283C13.1981 10.4376 13.1952 10.4452 13.1892 10.4511C13.1833 10.457 13.1761 10.46 13.1677 10.46H13.0343ZM12.7701 10.1133H13.0076V9.77928L12.7701 10.1133Z" fill="#988876"/>
<rect x="8.52" y="8.7" width="2.67" height="2.67" rx="0.15" fill="#A1A1A1"/>
<rect x="17.8" y="5.6" width="2.67" height="2.67" rx="0.15" fill="#EDE0C8"/>
<path d="M19.2243 7.36C19.2158 7.36 19.2086 7.35704 19.2027 7.35111C19.1968 7.34518 19.1938 7.33756 19.1938 7.32825V7.17585H18.7938C18.7853 7.17585 18.7781 7.17289 18.7722 7.16696C18.7663 7.16103 18.7633 7.15341 18.7633 7.1441V7.04123C18.7633 7.0353 18.7646 7.02895 18.7671 7.02218C18.7696 7.01541 18.773 7.00906 18.7773 7.00313L19.1494 6.49259C19.1604 6.4782 19.176 6.471 19.1964 6.471H19.3577C19.3661 6.471 19.3733 6.47396 19.3792 6.47989C19.3852 6.48582 19.3881 6.49344 19.3881 6.50275V7.00694H19.5012C19.5113 7.00694 19.5189 7.0099 19.524 7.01583C19.53 7.02176 19.5329 7.02895 19.5329 7.03742V7.1441C19.5329 7.15341 19.53 7.16103 19.524 7.16696C19.5181 7.17289 19.5109 7.17585 19.5024 7.17585H19.3881V7.32825C19.3881 7.33756 19.3852 7.34518 19.3792 7.35111C19.3733 7.35704 19.3661 7.36 19.3577 7.36H19.2243ZM18.9601 7.01329H19.1976V6.67928L18.9601 7.01329Z" fill="#988876"/>
<rect x="14.72" y="5.6" width="2.67" height="2.67" rx="0.15" fill="#A1A1A1"/>
<rect x="11.61" y="5.6" width="2.67" height="2.67" rx="0.15" fill="#A1A1A1"/>
<rect x="8.52" y="5.6" width="2.67" height="2.67" rx="0.15" fill="#A1A1A1"/>
<rect x="17.8" y="2.53" width="2.67" height="2.67" rx="0.15" fill="#A1A1A1"/>
<rect x="14.72" y="2.53" width="2.67" height="2.67" rx="0.15" fill="#A1A1A1"/>
<rect x="11.61" y="2.53" width="2.67" height="2.67" rx="0.15" fill="#A1A1A1"/>
<rect x="8.52" y="2.53" width="2.67" height="2.67" rx="0.15" fill="#A1A1A1"/>
</svg>
