<svg width="30" height="17" viewBox="0 0 30 17" fill="none" xmlns="http://www.w3.org/2000/svg">
<rect x="8.07" y="2.07" width="12.86" height="12.86" fill="#F5F5F5" stroke="black" stroke-width="0.14"/>
<line x1="19.505" y1="15" x2="19.505" y2="2" stroke="black" stroke-width="0.05"/>
<line x1="18.105" y1="15" x2="18.105" y2="2" stroke="black" stroke-width="0.05"/>
<line x1="15.225" y1="15" x2="15.225" y2="2" stroke="black" stroke-width="0.05"/>
<line x1="13.805" y1="15" x2="13.805" y2="2" stroke="black" stroke-width="0.05"/>
<line x1="10.915" y1="15" x2="10.915" y2="2" stroke="black" stroke-width="0.05"/>
<line x1="9.525" y1="15" x2="9.525" y2="2" stroke="black" stroke-width="0.05"/>
<line x1="8" y1="13.525" x2="21" y2="13.525" stroke="black" stroke-width="0.05"/>
<line x1="8" y1="12.105" x2="21" y2="12.105" stroke="black" stroke-width="0.05"/>
<line x1="8" y1="9.225" x2="21" y2="9.225" stroke="black" stroke-width="0.05"/>
<line x1="8" y1="7.825" x2="21" y2="7.825" stroke="black" stroke-width="0.05"/>
<line x1="8" y1="4.915" x2="21" y2="4.915" stroke="black" stroke-width="0.05"/>
<line x1="8" y1="3.525" x2="21" y2="3.525" stroke="black" stroke-width="0.05"/>
<line x1="16.66" y1="15" x2="16.66" y2="2" stroke="black" stroke-width="0.14"/>
<line x1="12.38" y1="15" x2="12.38" y2="2" stroke="black" stroke-width="0.14"/>
<line x1="8" y1="10.68" x2="21" y2="10.68" stroke="black" stroke-width="0.14"/>
<line x1="8" y1="6.37" x2="21" y2="6.37" stroke="black" stroke-width="0.14"/>
<path d="M10.4678 7.392V7.47H9.99384V7.35C9.99384 7.318 9.99918 7.29033 10.0098 7.267C10.0205 7.243 10.0355 7.22267 10.0548 7.206C10.0748 7.18867 10.0988 7.17433 10.1268 7.163C10.1548 7.15167 10.1865 7.142 10.2218 7.134C10.2812 7.12067 10.3238 7.10167 10.3498 7.077C10.3765 7.05233 10.3898 7.022 10.3898 6.986V6.98C10.3898 6.962 10.3868 6.94433 10.3808 6.927C10.3748 6.90967 10.3655 6.894 10.3528 6.88C10.3402 6.866 10.3238 6.855 10.3038 6.847C10.2845 6.83833 10.2612 6.834 10.2338 6.834C10.1825 6.834 10.1425 6.84967 10.1138 6.881C10.0858 6.91233 10.0718 6.954 10.0718 7.006V7.05H9.98784V7C9.98784 6.968 9.99318 6.93733 10.0038 6.908C10.0145 6.87867 10.0302 6.85267 10.0508 6.83C10.0715 6.80733 10.0972 6.78933 10.1278 6.776C10.1585 6.76267 10.1938 6.756 10.2338 6.756C10.2745 6.756 10.3098 6.76233 10.3398 6.775C10.3698 6.787 10.3948 6.80333 10.4148 6.824C10.4348 6.844 10.4495 6.867 10.4588 6.893C10.4688 6.91833 10.4738 6.94433 10.4738 6.971V6.989C10.4738 7.04233 10.4572 7.088 10.4238 7.126C10.3905 7.16333 10.3372 7.19 10.2638 7.206C10.1998 7.22 10.1528 7.23867 10.1228 7.262C10.0928 7.28467 10.0778 7.318 10.0778 7.362V7.392H10.4678Z" fill="#4A5565"/>
<path d="M17.3908 5.984C17.3555 5.984 17.3235 5.97933 17.2948 5.97C17.2662 5.96 17.2415 5.94667 17.2208 5.93C17.2002 5.91267 17.1842 5.89267 17.1728 5.87C17.1622 5.84667 17.1568 5.82133 17.1568 5.794V5.782C17.1568 5.758 17.1605 5.73667 17.1678 5.718C17.1752 5.69933 17.1848 5.683 17.1968 5.669C17.2088 5.655 17.2225 5.64333 17.2378 5.634C17.2538 5.62467 17.2702 5.61767 17.2868 5.613V5.601C17.2715 5.59633 17.2572 5.58933 17.2438 5.58C17.2305 5.57067 17.2185 5.55967 17.2078 5.547C17.1978 5.53433 17.1898 5.52 17.1838 5.504C17.1778 5.48733 17.1748 5.46933 17.1748 5.45V5.438C17.1748 5.41133 17.1802 5.387 17.1908 5.365C17.2015 5.34233 17.2165 5.323 17.2358 5.307C17.2558 5.291 17.2792 5.27867 17.3058 5.27C17.3332 5.26067 17.3635 5.256 17.3968 5.256H17.4028C17.4355 5.256 17.4655 5.26067 17.4928 5.27C17.5202 5.27867 17.5435 5.291 17.5628 5.307C17.5828 5.323 17.5982 5.34233 17.6088 5.365C17.6195 5.387 17.6248 5.41133 17.6248 5.438V5.45C17.6248 5.46933 17.6218 5.48733 17.6158 5.504C17.6098 5.52 17.6015 5.53433 17.5908 5.547C17.5808 5.55967 17.5688 5.57067 17.5548 5.58C17.5415 5.58933 17.5275 5.59633 17.5128 5.601V5.613C17.5295 5.61767 17.5455 5.62467 17.5608 5.634C17.5768 5.64333 17.5908 5.655 17.6028 5.669C17.6148 5.683 17.6245 5.69933 17.6318 5.718C17.6392 5.73667 17.6428 5.758 17.6428 5.782V5.794C17.6428 5.82133 17.6372 5.84667 17.6258 5.87C17.6152 5.89267 17.5995 5.91267 17.5788 5.93C17.5582 5.94667 17.5335 5.96 17.5048 5.97C17.4762 5.97933 17.4442 5.984 17.4088 5.984H17.3908ZM17.4058 5.908C17.4512 5.908 17.4878 5.89633 17.5158 5.873C17.5445 5.84967 17.5588 5.81933 17.5588 5.782V5.776C17.5588 5.73467 17.5442 5.70267 17.5148 5.68C17.4862 5.65733 17.4488 5.646 17.4028 5.646H17.3968C17.3508 5.646 17.3132 5.65733 17.2838 5.68C17.2552 5.70267 17.2408 5.73467 17.2408 5.776V5.782C17.2408 5.81933 17.2548 5.84967 17.2828 5.873C17.3115 5.89633 17.3485 5.908 17.3938 5.908H17.4058ZM17.3998 5.568C17.4418 5.568 17.4758 5.557 17.5018 5.535C17.5278 5.513 17.5408 5.48533 17.5408 5.452V5.446C17.5408 5.412 17.5278 5.38467 17.5018 5.364C17.4765 5.34267 17.4425 5.332 17.3998 5.332C17.3572 5.332 17.3228 5.34267 17.2968 5.364C17.2715 5.38467 17.2588 5.412 17.2588 5.446V5.452C17.2588 5.48533 17.2718 5.513 17.2978 5.535C17.3238 5.557 17.3578 5.568 17.3998 5.568Z" fill="#4A5565"/>
<path d="M14.4928 5.892V5.307H14.4808L14.3658 5.57H14.2828V5.564L14.4138 5.27H14.5768V5.892H14.7748V5.97H14.2948V5.892H14.4928Z" fill="#4A5565"/>
<path d="M13.3578 5.892V5.97H12.8838V5.85C12.8838 5.818 12.8892 5.79033 12.8998 5.767C12.9105 5.743 12.9255 5.72267 12.9448 5.706C12.9648 5.68867 12.9888 5.67433 13.0168 5.663C13.0448 5.65167 13.0765 5.642 13.1118 5.634C13.1712 5.62067 13.2138 5.60167 13.2398 5.577C13.2665 5.55233 13.2798 5.522 13.2798 5.486V5.48C13.2798 5.462 13.2768 5.44433 13.2708 5.427C13.2648 5.40967 13.2555 5.394 13.2428 5.38C13.2302 5.366 13.2138 5.355 13.1938 5.347C13.1745 5.33833 13.1512 5.334 13.1238 5.334C13.0725 5.334 13.0325 5.34967 13.0038 5.381C12.9758 5.41233 12.9618 5.454 12.9618 5.506V5.55H12.8778V5.5C12.8778 5.468 12.8832 5.43733 12.8938 5.408C12.9045 5.37867 12.9202 5.35267 12.9408 5.33C12.9615 5.30733 12.9872 5.28933 13.0178 5.276C13.0485 5.26267 13.0838 5.256 13.1238 5.256C13.1645 5.256 13.1998 5.26233 13.2298 5.275C13.2598 5.287 13.2848 5.30333 13.3048 5.324C13.3248 5.344 13.3395 5.367 13.3488 5.393C13.3588 5.41833 13.3638 5.44433 13.3638 5.471V5.489C13.3638 5.54233 13.3472 5.588 13.3138 5.626C13.2805 5.66333 13.2272 5.69 13.1538 5.706C13.0898 5.72 13.0428 5.73867 13.0128 5.762C12.9828 5.78467 12.9678 5.818 12.9678 5.862V5.892H13.3578Z" fill="#4A5565"/>
<path d="M8.96685 5.474C8.96685 5.43067 8.95352 5.396 8.92685 5.37C8.90019 5.34333 8.86319 5.33 8.81585 5.33C8.79319 5.33 8.77219 5.334 8.75285 5.342C8.73419 5.35 8.71785 5.36167 8.70385 5.377C8.69052 5.39167 8.67985 5.40933 8.67185 5.43C8.66452 5.45067 8.66085 5.47333 8.66085 5.498V5.602H8.67285C8.68885 5.57267 8.71152 5.54967 8.74085 5.533C8.77085 5.51633 8.80419 5.508 8.84086 5.508C8.87286 5.508 8.90252 5.51333 8.92985 5.524C8.95719 5.534 8.98052 5.549 8.99986 5.569C9.01986 5.589 9.03519 5.61333 9.04585 5.642C9.05719 5.67 9.06286 5.702 9.06286 5.738V5.75C9.06286 5.78467 9.05652 5.81633 9.04386 5.845C9.03186 5.87367 9.01486 5.89833 8.99286 5.919C8.97152 5.93967 8.94586 5.95567 8.91585 5.967C8.88652 5.97833 8.85452 5.984 8.81986 5.984C8.78519 5.984 8.75285 5.97833 8.72285 5.967C8.69352 5.95567 8.66785 5.94 8.64585 5.92C8.62452 5.89933 8.60752 5.875 8.59485 5.847C8.58285 5.81833 8.57685 5.787 8.57685 5.753V5.498C8.57685 5.46133 8.58319 5.428 8.59585 5.398C8.60852 5.368 8.62585 5.34267 8.64785 5.322C8.66985 5.30067 8.69519 5.28433 8.72385 5.273C8.75319 5.26167 8.78452 5.256 8.81786 5.256C8.85119 5.256 8.88219 5.261 8.91085 5.271C8.93952 5.281 8.96419 5.29567 8.98485 5.315C9.00552 5.33367 9.02152 5.35667 9.03286 5.384C9.04485 5.41067 9.05085 5.44067 9.05085 5.474H8.96685ZM8.81986 5.91C8.84385 5.91 8.86552 5.90633 8.88486 5.899C8.90486 5.891 8.92186 5.88 8.93586 5.866C8.94985 5.852 8.96052 5.83533 8.96786 5.816C8.97519 5.79667 8.97886 5.77533 8.97886 5.752V5.74C8.97886 5.71667 8.97486 5.69533 8.96685 5.676C8.95885 5.65667 8.94785 5.64 8.93385 5.626C8.91985 5.612 8.90285 5.60133 8.88285 5.594C8.86352 5.586 8.84252 5.582 8.81986 5.582C8.79719 5.582 8.77619 5.586 8.75685 5.594C8.73752 5.602 8.72052 5.613 8.70585 5.627C8.69185 5.641 8.68085 5.65733 8.67285 5.676C8.66485 5.69467 8.66085 5.71467 8.66085 5.736V5.755C8.66085 5.777 8.66452 5.79767 8.67185 5.817C8.67919 5.83567 8.68985 5.852 8.70385 5.866C8.71785 5.88 8.73452 5.891 8.75385 5.899C8.77385 5.90633 8.79585 5.91 8.81986 5.91Z" fill="#4A5565"/>
<path d="M20.3668 4.084C20.3668 4.04067 20.3535 4.006 20.3268 3.98C20.3002 3.95333 20.2632 3.94 20.2158 3.94C20.1932 3.94 20.1722 3.944 20.1528 3.952C20.1342 3.96 20.1178 3.97167 20.1038 3.987C20.0905 4.00167 20.0798 4.01933 20.0718 4.04C20.0645 4.06067 20.0608 4.08333 20.0608 4.108V4.212H20.0728C20.0888 4.18267 20.1115 4.15967 20.1408 4.143C20.1708 4.12633 20.2042 4.118 20.2408 4.118C20.2728 4.118 20.3025 4.12333 20.3298 4.134C20.3572 4.144 20.3805 4.159 20.3998 4.179C20.4198 4.199 20.4352 4.22333 20.4458 4.252C20.4572 4.28 20.4628 4.312 20.4628 4.348V4.36C20.4628 4.39467 20.4565 4.42633 20.4438 4.455C20.4318 4.48367 20.4148 4.50833 20.3928 4.529C20.3715 4.54967 20.3458 4.56567 20.3158 4.577C20.2865 4.58833 20.2545 4.594 20.2198 4.594C20.1852 4.594 20.1528 4.58833 20.1228 4.577C20.0935 4.56567 20.0678 4.55 20.0458 4.53C20.0245 4.50933 20.0075 4.485 19.9948 4.457C19.9828 4.42833 19.9768 4.397 19.9768 4.363V4.108C19.9768 4.07133 19.9832 4.038 19.9958 4.008C20.0085 3.978 20.0258 3.95267 20.0478 3.932C20.0698 3.91067 20.0952 3.89433 20.1238 3.883C20.1532 3.87167 20.1845 3.866 20.2178 3.866C20.2512 3.866 20.2822 3.871 20.3108 3.881C20.3395 3.891 20.3642 3.90567 20.3848 3.925C20.4055 3.94367 20.4215 3.96667 20.4328 3.994C20.4448 4.02067 20.4508 4.05067 20.4508 4.084H20.3668ZM20.2198 4.52C20.2438 4.52 20.2655 4.51633 20.2848 4.509C20.3048 4.501 20.3218 4.49 20.3358 4.476C20.3498 4.462 20.3605 4.44533 20.3678 4.426C20.3752 4.40667 20.3788 4.38533 20.3788 4.362V4.35C20.3788 4.32667 20.3748 4.30533 20.3668 4.286C20.3588 4.26667 20.3478 4.25 20.3338 4.236C20.3198 4.222 20.3028 4.21133 20.2828 4.204C20.2635 4.196 20.2425 4.192 20.2198 4.192C20.1972 4.192 20.1762 4.196 20.1568 4.204C20.1375 4.212 20.1205 4.223 20.1058 4.237C20.0918 4.251 20.0808 4.26733 20.0728 4.286C20.0648 4.30467 20.0608 4.32467 20.0608 4.346V4.365C20.0608 4.387 20.0645 4.40767 20.0718 4.427C20.0792 4.44567 20.0898 4.462 20.1038 4.476C20.1178 4.49 20.1345 4.501 20.1538 4.509C20.1738 4.51633 20.1958 4.52 20.2198 4.52Z" fill="#4A5565"/>
<path d="M15.9078 3.88H16.0708V4.37H16.1788V4.448H16.0708V4.58H15.9868V4.448H15.6628V4.332L15.9078 3.88ZM15.7348 4.358V4.37H15.9868V3.916H15.9748L15.7348 4.358Z" fill="#4A5565"/>
<path d="M12.8959 3.88H13.3639V4.002L13.0689 4.448C13.0549 4.46933 13.0442 4.48767 13.0369 4.503C13.0295 4.51833 13.0259 4.534 13.0259 4.55V4.58H12.9439V4.544C12.9439 4.532 12.9449 4.52067 12.9469 4.51C12.9495 4.49933 12.9532 4.48867 12.9579 4.478C12.9632 4.46667 12.9695 4.455 12.9769 4.443C12.9849 4.43033 12.9942 4.416 13.0049 4.4L13.2919 3.97V3.958H12.8959V3.88Z" fill="#4A5565"/>
<path d="M11.6108 4.594C11.5755 4.594 11.5435 4.58933 11.5148 4.58C11.4862 4.57 11.4615 4.55667 11.4408 4.54C11.4202 4.52267 11.4042 4.50267 11.3928 4.48C11.3822 4.45667 11.3768 4.43133 11.3768 4.404V4.392C11.3768 4.368 11.3805 4.34667 11.3878 4.328C11.3952 4.30933 11.4048 4.293 11.4168 4.279C11.4288 4.265 11.4425 4.25333 11.4578 4.244C11.4738 4.23467 11.4902 4.22767 11.5068 4.223V4.211C11.4915 4.20633 11.4772 4.19933 11.4638 4.19C11.4505 4.18067 11.4385 4.16967 11.4278 4.157C11.4178 4.14433 11.4098 4.13 11.4038 4.114C11.3978 4.09733 11.3948 4.07933 11.3948 4.06V4.048C11.3948 4.02133 11.4002 3.997 11.4108 3.975C11.4215 3.95233 11.4365 3.933 11.4558 3.917C11.4758 3.901 11.4992 3.88867 11.5258 3.88C11.5532 3.87067 11.5835 3.866 11.6168 3.866H11.6228C11.6555 3.866 11.6855 3.87067 11.7128 3.88C11.7402 3.88867 11.7635 3.901 11.7828 3.917C11.8028 3.933 11.8182 3.95233 11.8288 3.975C11.8395 3.997 11.8448 4.02133 11.8448 4.048V4.06C11.8448 4.07933 11.8418 4.09733 11.8358 4.114C11.8298 4.13 11.8215 4.14433 11.8108 4.157C11.8008 4.16967 11.7888 4.18067 11.7748 4.19C11.7615 4.19933 11.7475 4.20633 11.7328 4.211V4.223C11.7495 4.22767 11.7655 4.23467 11.7808 4.244C11.7968 4.25333 11.8108 4.265 11.8228 4.279C11.8348 4.293 11.8445 4.30933 11.8518 4.328C11.8592 4.34667 11.8628 4.368 11.8628 4.392V4.404C11.8628 4.43133 11.8572 4.45667 11.8458 4.48C11.8352 4.50267 11.8195 4.52267 11.7988 4.54C11.7782 4.55667 11.7535 4.57 11.7248 4.58C11.6962 4.58933 11.6642 4.594 11.6288 4.594H11.6108ZM11.6258 4.518C11.6712 4.518 11.7078 4.50633 11.7358 4.483C11.7645 4.45967 11.7788 4.42933 11.7788 4.392V4.386C11.7788 4.34467 11.7642 4.31267 11.7348 4.29C11.7062 4.26733 11.6688 4.256 11.6228 4.256H11.6168C11.5708 4.256 11.5332 4.26733 11.5038 4.29C11.4752 4.31267 11.4608 4.34467 11.4608 4.386V4.392C11.4608 4.42933 11.4748 4.45967 11.5028 4.483C11.5315 4.50633 11.5685 4.518 11.6138 4.518H11.6258ZM11.6198 4.178C11.6618 4.178 11.6958 4.167 11.7218 4.145C11.7478 4.123 11.7608 4.09533 11.7608 4.062V4.056C11.7608 4.022 11.7478 3.99467 11.7218 3.974C11.6965 3.95267 11.6625 3.942 11.6198 3.942C11.5772 3.942 11.5428 3.95267 11.5168 3.974C11.4915 3.99467 11.4788 4.022 11.4788 4.056V4.062C11.4788 4.09533 11.4918 4.123 11.5178 4.145C11.5438 4.167 11.5778 4.178 11.6198 4.178Z" fill="#4A5565"/>
<path d="M8.76085 4.232V4.116L8.98885 3.97V3.958H8.59285V3.88H9.06085V4.008L8.83285 4.154V4.166H8.87285C8.89952 4.166 8.92518 4.17033 8.94985 4.179C8.97452 4.18767 8.99618 4.20033 9.01485 4.217C9.03418 4.23367 9.04952 4.25433 9.06085 4.279C9.07285 4.303 9.07885 4.331 9.07885 4.363V4.381C9.07885 4.411 9.07285 4.439 9.06085 4.465C9.04885 4.491 9.03218 4.51367 9.01085 4.533C8.98952 4.55167 8.96418 4.56667 8.93485 4.578C8.90618 4.58867 8.87485 4.594 8.84085 4.594C8.80152 4.594 8.76618 4.588 8.73485 4.576C8.70352 4.564 8.67685 4.54767 8.65485 4.527C8.63285 4.50567 8.61585 4.481 8.60385 4.453C8.59252 4.42433 8.58685 4.394 8.58685 4.362V4.308H8.67085V4.356C8.67085 4.38133 8.67485 4.404 8.68285 4.424C8.69152 4.44333 8.70318 4.46 8.71785 4.474C8.73318 4.48733 8.75118 4.49767 8.77185 4.505C8.79252 4.51233 8.81485 4.516 8.83885 4.516C8.86085 4.516 8.88118 4.51233 8.89985 4.505C8.91918 4.49767 8.93585 4.48767 8.94985 4.475C8.96385 4.46167 8.97485 4.44633 8.98285 4.429C8.99085 4.411 8.99485 4.392 8.99485 4.372V4.366C8.99485 4.324 8.98152 4.29133 8.95485 4.268C8.92818 4.244 8.89485 4.232 8.85485 4.232H8.76085Z" fill="#4A5565"/>
<path d="M20.1978 2.46H20.3608V2.95H20.4688V3.028H20.3608V3.16H20.2768V3.028H19.9528V2.912L20.1978 2.46ZM20.0248 2.938V2.95H20.2768V2.496H20.2648L20.0248 2.938Z" fill="#4A5565"/>
<path d="M18.5818 2.83V2.46H19.0198V2.538H18.6638V2.788H18.6758C18.6825 2.77467 18.6912 2.762 18.7018 2.75C18.7125 2.73733 18.7248 2.72633 18.7388 2.717C18.7535 2.70767 18.7698 2.70033 18.7878 2.695C18.8058 2.689 18.8258 2.686 18.8478 2.686C18.8798 2.686 18.9092 2.69133 18.9358 2.702C18.9632 2.71267 18.9865 2.72767 19.0058 2.747C19.0252 2.76633 19.0402 2.78967 19.0508 2.817C19.0622 2.84433 19.0678 2.87467 19.0678 2.908V2.926C19.0678 2.95933 19.0625 2.991 19.0518 3.021C19.0412 3.05033 19.0255 3.07667 19.0048 3.1C18.9842 3.12267 18.9585 3.14067 18.9278 3.154C18.8972 3.16733 18.8618 3.174 18.8218 3.174C18.7812 3.174 18.7452 3.168 18.7138 3.156C18.6825 3.144 18.6562 3.12733 18.6348 3.106C18.6135 3.08467 18.5972 3.05967 18.5858 3.031C18.5752 3.00167 18.5698 2.97 18.5698 2.936V2.908H18.6538V2.93C18.6538 2.98533 18.6692 3.027 18.6998 3.055C18.7312 3.08233 18.7718 3.096 18.8218 3.096C18.8485 3.096 18.8718 3.09133 18.8918 3.082C18.9125 3.072 18.9295 3.059 18.9428 3.043C18.9568 3.02633 18.9672 3.00733 18.9738 2.986C18.9805 2.964 18.9838 2.94133 18.9838 2.918V2.912C18.9838 2.89133 18.9802 2.872 18.9728 2.854C18.9662 2.836 18.9565 2.82033 18.9438 2.807C18.9318 2.79367 18.9168 2.78333 18.8988 2.776C18.8815 2.768 18.8625 2.764 18.8418 2.764C18.8278 2.764 18.8148 2.766 18.8028 2.77C18.7915 2.774 18.7815 2.77933 18.7728 2.786C18.7642 2.792 18.7568 2.799 18.7508 2.807C18.7455 2.815 18.7418 2.82267 18.7398 2.83H18.5818Z" fill="#4A5565"/>
<path d="M17.3828 3.082V2.497H17.3708L17.2558 2.76H17.1728V2.754L17.3038 2.46H17.4668V3.082H17.6648V3.16H17.1848V3.082H17.3828Z" fill="#4A5565"/>
<path d="M11.4829 2.976C11.4829 3.01933 11.4962 3.05433 11.5229 3.081C11.5495 3.107 11.5865 3.12 11.6339 3.12C11.6565 3.12 11.6772 3.116 11.6959 3.108C11.7152 3.1 11.7315 3.08867 11.7449 3.074C11.7589 3.05867 11.7695 3.041 11.7769 3.021C11.7849 3.00033 11.7889 2.97733 11.7889 2.952V2.848H11.7769C11.7615 2.87733 11.7395 2.90033 11.7109 2.917C11.6822 2.93367 11.6489 2.942 11.6109 2.942C11.5782 2.942 11.5482 2.937 11.5209 2.927C11.4935 2.917 11.4699 2.90233 11.4499 2.883C11.4299 2.863 11.4142 2.839 11.4029 2.811C11.3922 2.783 11.3869 2.751 11.3869 2.715V2.703C11.3869 2.66833 11.3929 2.63667 11.4049 2.608C11.4169 2.57867 11.4335 2.55367 11.4549 2.533C11.4769 2.51167 11.5025 2.49533 11.5319 2.484C11.5619 2.472 11.5945 2.466 11.6299 2.466C11.6652 2.466 11.6975 2.472 11.7269 2.484C11.7569 2.49533 11.7825 2.51133 11.8039 2.532C11.8259 2.55267 11.8429 2.57733 11.8549 2.606C11.8669 2.63467 11.8729 2.666 11.8729 2.7V2.952C11.8729 2.98933 11.8665 3.023 11.8539 3.053C11.8419 3.08233 11.8249 3.10767 11.8029 3.129C11.7815 3.14967 11.7562 3.16567 11.7269 3.177C11.6975 3.18833 11.6659 3.194 11.6319 3.194C11.5979 3.194 11.5665 3.189 11.5379 3.179C11.5092 3.169 11.4845 3.15467 11.4639 3.136C11.4432 3.11667 11.4272 3.09367 11.4159 3.067C11.4045 3.03967 11.3989 3.00933 11.3989 2.976H11.4829ZM11.6299 2.54C11.6059 2.54 11.5839 2.544 11.5639 2.552C11.5445 2.56 11.5279 2.57133 11.5139 2.586C11.4999 2.60067 11.4892 2.618 11.4819 2.638C11.4745 2.65733 11.4709 2.67833 11.4709 2.701V2.713C11.4709 2.73633 11.4749 2.75767 11.4829 2.777C11.4909 2.79567 11.5019 2.812 11.5159 2.826C11.5299 2.83933 11.5465 2.84967 11.5659 2.857C11.5852 2.86433 11.6065 2.868 11.6299 2.868C11.6525 2.868 11.6735 2.86433 11.6929 2.857C11.7122 2.849 11.7289 2.83833 11.7429 2.825C11.7575 2.81167 11.7689 2.79567 11.7769 2.777C11.7849 2.75833 11.7889 2.73833 11.7889 2.717V2.698C11.7889 2.676 11.7852 2.65533 11.7779 2.636C11.7705 2.61667 11.7599 2.6 11.7459 2.586C11.7319 2.57133 11.7149 2.56 11.6949 2.552C11.6755 2.544 11.6539 2.54 11.6299 2.54Z" fill="#4A5565"/>
<path d="M10.0059 2.48H10.4739V2.602L10.1789 3.048C10.1649 3.06933 10.1542 3.08767 10.1469 3.103C10.1395 3.11833 10.1359 3.134 10.1359 3.15V3.18H10.0539V3.144C10.0539 3.132 10.0549 3.12067 10.0569 3.11C10.0595 3.09933 10.0632 3.08867 10.0679 3.078C10.0732 3.06667 10.0795 3.055 10.0869 3.043C10.0949 3.03033 10.1042 3.016 10.1149 3L10.4019 2.57V2.558H10.0059V2.48Z" fill="#4A5565"/>
<path d="M11.4158 6.77H11.8838V6.892L11.5888 7.338C11.5748 7.35933 11.5642 7.37767 11.5568 7.393C11.5495 7.40833 11.5458 7.424 11.5458 7.44V7.47H11.4638V7.434C11.4638 7.422 11.4648 7.41067 11.4668 7.4C11.4695 7.38933 11.4732 7.37867 11.4778 7.368C11.4832 7.35667 11.4895 7.345 11.4968 7.333C11.5048 7.32033 11.5142 7.306 11.5248 7.29L11.8118 6.86V6.848H11.4158V6.77Z" fill="#4A5565"/>
<path d="M12.9728 7.266C12.9728 7.30933 12.9862 7.34433 13.0128 7.371C13.0395 7.397 13.0765 7.41 13.1238 7.41C13.1465 7.41 13.1672 7.406 13.1858 7.398C13.2052 7.39 13.2215 7.37867 13.2348 7.364C13.2488 7.34867 13.2595 7.331 13.2668 7.311C13.2748 7.29033 13.2788 7.26733 13.2788 7.242V7.138H13.2668C13.2515 7.16733 13.2295 7.19033 13.2008 7.207C13.1722 7.22367 13.1388 7.232 13.1008 7.232C13.0682 7.232 13.0382 7.227 13.0108 7.217C12.9835 7.207 12.9598 7.19233 12.9398 7.173C12.9198 7.153 12.9042 7.129 12.8928 7.101C12.8822 7.073 12.8768 7.041 12.8768 7.005V6.993C12.8768 6.95833 12.8828 6.92667 12.8948 6.898C12.9068 6.86867 12.9235 6.84367 12.9448 6.823C12.9668 6.80167 12.9925 6.78533 13.0218 6.774C13.0518 6.762 13.0845 6.756 13.1198 6.756C13.1552 6.756 13.1875 6.762 13.2168 6.774C13.2468 6.78533 13.2725 6.80133 13.2938 6.822C13.3158 6.84267 13.3328 6.86733 13.3448 6.896C13.3568 6.92467 13.3628 6.956 13.3628 6.99V7.242C13.3628 7.27933 13.3565 7.313 13.3438 7.343C13.3318 7.37233 13.3148 7.39767 13.2928 7.419C13.2715 7.43967 13.2462 7.45567 13.2168 7.467C13.1875 7.47833 13.1558 7.484 13.1218 7.484C13.0878 7.484 13.0565 7.479 13.0278 7.469C12.9992 7.459 12.9745 7.44467 12.9538 7.426C12.9332 7.40667 12.9172 7.38367 12.9058 7.357C12.8945 7.32967 12.8888 7.29933 12.8888 7.266H12.9728ZM13.1198 6.83C13.0958 6.83 13.0738 6.834 13.0538 6.842C13.0345 6.85 13.0178 6.86133 13.0038 6.876C12.9898 6.89067 12.9792 6.908 12.9718 6.928C12.9645 6.94733 12.9608 6.96833 12.9608 6.991V7.003C12.9608 7.02633 12.9648 7.04767 12.9728 7.067C12.9808 7.08567 12.9918 7.102 13.0058 7.116C13.0198 7.12933 13.0365 7.13967 13.0558 7.147C13.0752 7.15433 13.0965 7.158 13.1198 7.158C13.1425 7.158 13.1635 7.15433 13.1828 7.147C13.2022 7.139 13.2188 7.12833 13.2328 7.115C13.2475 7.10167 13.2588 7.08567 13.2668 7.067C13.2748 7.04833 13.2788 7.02833 13.2788 7.007V6.988C13.2788 6.966 13.2752 6.94533 13.2678 6.926C13.2605 6.90667 13.2498 6.89 13.2358 6.876C13.2218 6.86133 13.2048 6.85 13.1848 6.842C13.1655 6.834 13.1438 6.83 13.1198 6.83Z" fill="#4A5565"/>
<path d="M20.2208 7.484C20.1855 7.484 20.1535 7.47933 20.1248 7.47C20.0962 7.46 20.0715 7.44667 20.0508 7.43C20.0302 7.41267 20.0142 7.39267 20.0028 7.37C19.9922 7.34667 19.9868 7.32133 19.9868 7.294V7.282C19.9868 7.258 19.9905 7.23667 19.9978 7.218C20.0052 7.19933 20.0148 7.183 20.0268 7.169C20.0388 7.155 20.0525 7.14333 20.0678 7.134C20.0838 7.12467 20.1002 7.11767 20.1168 7.113V7.101C20.1015 7.09633 20.0872 7.08933 20.0738 7.08C20.0605 7.07067 20.0485 7.05967 20.0378 7.047C20.0278 7.03433 20.0198 7.02 20.0138 7.004C20.0078 6.98733 20.0048 6.96933 20.0048 6.95V6.938C20.0048 6.91133 20.0102 6.887 20.0208 6.865C20.0315 6.84233 20.0465 6.823 20.0658 6.807C20.0858 6.791 20.1092 6.77867 20.1358 6.77C20.1632 6.76067 20.1935 6.756 20.2268 6.756H20.2328C20.2655 6.756 20.2955 6.76067 20.3228 6.77C20.3502 6.77867 20.3735 6.791 20.3928 6.807C20.4128 6.823 20.4282 6.84233 20.4388 6.865C20.4495 6.887 20.4548 6.91133 20.4548 6.938V6.95C20.4548 6.96933 20.4518 6.98733 20.4458 7.004C20.4398 7.02 20.4315 7.03433 20.4208 7.047C20.4108 7.05967 20.3988 7.07067 20.3848 7.08C20.3715 7.08933 20.3575 7.09633 20.3428 7.101V7.113C20.3595 7.11767 20.3755 7.12467 20.3908 7.134C20.4068 7.14333 20.4208 7.155 20.4328 7.169C20.4448 7.183 20.4545 7.19933 20.4618 7.218C20.4692 7.23667 20.4728 7.258 20.4728 7.282V7.294C20.4728 7.32133 20.4672 7.34667 20.4558 7.37C20.4452 7.39267 20.4295 7.41267 20.4088 7.43C20.3882 7.44667 20.3635 7.46 20.3348 7.47C20.3062 7.47933 20.2742 7.484 20.2388 7.484H20.2208ZM20.2358 7.408C20.2812 7.408 20.3178 7.39633 20.3458 7.373C20.3745 7.34967 20.3888 7.31933 20.3888 7.282V7.276C20.3888 7.23467 20.3742 7.20267 20.3448 7.18C20.3162 7.15733 20.2788 7.146 20.2328 7.146H20.2268C20.1808 7.146 20.1432 7.15733 20.1138 7.18C20.0852 7.20267 20.0708 7.23467 20.0708 7.276V7.282C20.0708 7.31933 20.0848 7.34967 20.1128 7.373C20.1415 7.39633 20.1785 7.408 20.2238 7.408H20.2358ZM20.2298 7.068C20.2718 7.068 20.3058 7.057 20.3318 7.035C20.3578 7.013 20.3708 6.98533 20.3708 6.952V6.946C20.3708 6.912 20.3578 6.88467 20.3318 6.864C20.3065 6.84267 20.2725 6.832 20.2298 6.832C20.1872 6.832 20.1528 6.84267 20.1268 6.864C20.1015 6.88467 20.0888 6.912 20.0888 6.946V6.952C20.0888 6.98533 20.1018 7.013 20.1278 7.035C20.1538 7.057 20.1878 7.068 20.2298 7.068Z" fill="#4A5565"/>
<path d="M8.58185 8.54V8.17H9.01985V8.248H8.66385V8.498H8.67585C8.68251 8.48467 8.69118 8.472 8.70185 8.46C8.71251 8.44733 8.72485 8.43633 8.73885 8.427C8.75351 8.41767 8.76985 8.41033 8.78785 8.405C8.80585 8.399 8.82585 8.396 8.84785 8.396C8.87985 8.396 8.90918 8.40133 8.93585 8.412C8.96318 8.42267 8.98651 8.43767 9.00585 8.457C9.02518 8.47633 9.04018 8.49967 9.05085 8.527C9.06218 8.55433 9.06785 8.58467 9.06785 8.618V8.636C9.06785 8.66933 9.06251 8.701 9.05185 8.731C9.04118 8.76033 9.02551 8.78667 9.00485 8.81C8.98418 8.83267 8.95851 8.85067 8.92785 8.864C8.89718 8.87733 8.86185 8.884 8.82185 8.884C8.78118 8.884 8.74518 8.878 8.71385 8.866C8.68251 8.854 8.65618 8.83733 8.63485 8.816C8.61351 8.79467 8.59718 8.76967 8.58585 8.741C8.57518 8.71167 8.56985 8.68 8.56985 8.646V8.618H8.65385V8.64C8.65385 8.69533 8.66918 8.737 8.69985 8.765C8.73118 8.79233 8.77185 8.806 8.82185 8.806C8.84851 8.806 8.87185 8.80133 8.89185 8.792C8.91251 8.782 8.92951 8.769 8.94285 8.753C8.95685 8.73633 8.96718 8.71733 8.97385 8.696C8.98051 8.674 8.98385 8.65133 8.98385 8.628V8.622C8.98385 8.60133 8.98018 8.582 8.97285 8.564C8.96618 8.546 8.95651 8.53033 8.94385 8.517C8.93185 8.50367 8.91685 8.49333 8.89885 8.486C8.88151 8.478 8.86251 8.474 8.84185 8.474C8.82785 8.474 8.81485 8.476 8.80285 8.48C8.79151 8.484 8.78151 8.48933 8.77285 8.496C8.76418 8.502 8.75685 8.509 8.75085 8.517C8.74551 8.525 8.74185 8.53267 8.73985 8.54H8.58185Z" fill="#4A5565"/>
<path d="M13.0358 8.502V8.386L13.2638 8.24V8.228H12.8678V8.15H13.3358V8.278L13.1078 8.424V8.436H13.1478C13.1745 8.436 13.2002 8.44033 13.2248 8.449C13.2495 8.45767 13.2712 8.47033 13.2898 8.487C13.3092 8.50367 13.3245 8.52433 13.3358 8.549C13.3478 8.573 13.3538 8.601 13.3538 8.633V8.651C13.3538 8.681 13.3478 8.709 13.3358 8.735C13.3238 8.761 13.3072 8.78367 13.2858 8.803C13.2645 8.82167 13.2392 8.83667 13.2098 8.848C13.1812 8.85867 13.1498 8.864 13.1158 8.864C13.0765 8.864 13.0412 8.858 13.0098 8.846C12.9785 8.834 12.9518 8.81767 12.9298 8.797C12.9078 8.77567 12.8908 8.751 12.8788 8.723C12.8675 8.69433 12.8618 8.664 12.8618 8.632V8.578H12.9458V8.626C12.9458 8.65133 12.9498 8.674 12.9578 8.694C12.9665 8.71333 12.9782 8.73 12.9928 8.744C13.0082 8.75733 13.0262 8.76767 13.0468 8.775C13.0675 8.78233 13.0898 8.786 13.1138 8.786C13.1358 8.786 13.1562 8.78233 13.1748 8.775C13.1942 8.76767 13.2108 8.75767 13.2248 8.745C13.2388 8.73167 13.2498 8.71633 13.2578 8.699C13.2658 8.681 13.2698 8.662 13.2698 8.642V8.636C13.2698 8.594 13.2565 8.56133 13.2298 8.538C13.2032 8.514 13.1698 8.502 13.1298 8.502H13.0358Z" fill="#4A5565"/>
<path d="M18.7679 8.772V8.187H18.7559L18.6409 8.45H18.5579V8.444L18.6889 8.15H18.8519V8.772H19.0499V8.85H18.5699V8.772H18.7679Z" fill="#4A5565"/>
<path d="M8.81284 9.55H8.97584V10.04H9.08384V10.118H8.97584V10.25H8.89184V10.118H8.56784V10.002L8.81284 9.55ZM8.63984 10.028V10.04H8.89184V9.586H8.87984L8.63984 10.028Z" fill="#4A5565"/>
<path d="M13.0779 10.172V9.587H13.0659L12.9509 9.85H12.8679V9.844L12.9989 9.55H13.1619V10.172H13.3599V10.25H12.8799V10.172H13.0779Z" fill="#4A5565"/>
<path d="M14.6518 9.754C14.6518 9.71067 14.6385 9.676 14.6118 9.65C14.5852 9.62333 14.5482 9.61 14.5008 9.61C14.4782 9.61 14.4572 9.614 14.4378 9.622C14.4192 9.63 14.4028 9.64167 14.3888 9.657C14.3755 9.67167 14.3648 9.68933 14.3568 9.71C14.3495 9.73067 14.3458 9.75333 14.3458 9.778V9.882H14.3578C14.3738 9.85267 14.3965 9.82967 14.4258 9.813C14.4558 9.79633 14.4892 9.788 14.5258 9.788C14.5578 9.788 14.5875 9.79333 14.6148 9.804C14.6422 9.814 14.6655 9.829 14.6848 9.849C14.7048 9.869 14.7202 9.89333 14.7308 9.922C14.7422 9.95 14.7478 9.982 14.7478 10.018V10.03C14.7478 10.0647 14.7415 10.0963 14.7288 10.125C14.7168 10.1537 14.6998 10.1783 14.6778 10.199C14.6565 10.2197 14.6308 10.2357 14.6008 10.247C14.5715 10.2583 14.5395 10.264 14.5048 10.264C14.4702 10.264 14.4378 10.2583 14.4078 10.247C14.3785 10.2357 14.3528 10.22 14.3308 10.2C14.3095 10.1793 14.2925 10.155 14.2798 10.127C14.2678 10.0983 14.2618 10.067 14.2618 10.033V9.778C14.2618 9.74133 14.2682 9.708 14.2808 9.678C14.2935 9.648 14.3108 9.62267 14.3328 9.602C14.3548 9.58067 14.3802 9.56433 14.4088 9.553C14.4382 9.54167 14.4695 9.536 14.5028 9.536C14.5362 9.536 14.5672 9.541 14.5958 9.551C14.6245 9.561 14.6492 9.57567 14.6698 9.595C14.6905 9.61367 14.7065 9.63667 14.7178 9.664C14.7298 9.69067 14.7358 9.72067 14.7358 9.754H14.6518ZM14.5048 10.19C14.5288 10.19 14.5505 10.1863 14.5698 10.179C14.5898 10.171 14.6068 10.16 14.6208 10.146C14.6348 10.132 14.6455 10.1153 14.6528 10.096C14.6602 10.0767 14.6638 10.0553 14.6638 10.032V10.02C14.6638 9.99667 14.6598 9.97533 14.6518 9.956C14.6438 9.93667 14.6328 9.92 14.6188 9.906C14.6048 9.892 14.5878 9.88133 14.5678 9.874C14.5485 9.866 14.5275 9.862 14.5048 9.862C14.4822 9.862 14.4612 9.866 14.4418 9.874C14.4225 9.882 14.4055 9.893 14.3908 9.907C14.3768 9.921 14.3658 9.93733 14.3578 9.956C14.3498 9.97467 14.3458 9.99467 14.3458 10.016V10.035C14.3458 10.057 14.3495 10.0777 14.3568 10.097C14.3642 10.1157 14.3748 10.132 14.3888 10.146C14.4028 10.16 14.4195 10.171 14.4388 10.179C14.4588 10.1863 14.4808 10.19 14.5048 10.19Z" fill="#4A5565"/>
<path d="M17.6428 10.172V10.25H17.1688V10.13C17.1688 10.098 17.1742 10.0703 17.1848 10.047C17.1955 10.023 17.2105 10.0027 17.2298 9.986C17.2498 9.96867 17.2738 9.95433 17.3018 9.943C17.3298 9.93167 17.3615 9.922 17.3968 9.914C17.4562 9.90067 17.4988 9.88167 17.5248 9.857C17.5515 9.83233 17.5648 9.802 17.5648 9.766V9.76C17.5648 9.742 17.5618 9.72433 17.5558 9.707C17.5498 9.68967 17.5405 9.674 17.5278 9.66C17.5152 9.646 17.4988 9.635 17.4788 9.627C17.4595 9.61833 17.4362 9.614 17.4088 9.614C17.3575 9.614 17.3175 9.62967 17.2888 9.661C17.2608 9.69233 17.2468 9.734 17.2468 9.786V9.83H17.1628V9.78C17.1628 9.748 17.1682 9.71733 17.1788 9.688C17.1895 9.65867 17.2052 9.63267 17.2258 9.61C17.2465 9.58733 17.2722 9.56933 17.3028 9.556C17.3335 9.54267 17.3688 9.536 17.4088 9.536C17.4495 9.536 17.4848 9.54233 17.5148 9.555C17.5448 9.567 17.5698 9.58333 17.5898 9.604C17.6098 9.624 17.6245 9.647 17.6338 9.673C17.6438 9.69833 17.6488 9.72433 17.6488 9.751V9.769C17.6488 9.82233 17.6322 9.868 17.5988 9.906C17.5655 9.94333 17.5122 9.97 17.4388 9.986C17.3748 10 17.3278 10.0187 17.2978 10.042C17.2678 10.0647 17.2528 10.098 17.2528 10.142V10.172H17.6428Z" fill="#4A5565"/>
<path d="M13.1128 11.05H13.2758V11.54H13.3838V11.618H13.2758V11.75H13.1918V11.618H12.8678V11.502L13.1128 11.05ZM12.9398 11.528V11.54H13.1918V11.086H13.1798L12.9398 11.528Z" fill="#4A5565"/>
<path d="M14.2708 11.05H14.7388V11.172L14.4438 11.618C14.4298 11.6393 14.4192 11.6577 14.4118 11.673C14.4045 11.6883 14.4008 11.704 14.4008 11.72V11.75H14.3188V11.714C14.3188 11.702 14.3198 11.6907 14.3218 11.68C14.3245 11.6693 14.3282 11.6587 14.3328 11.648C14.3382 11.6367 14.3445 11.625 14.3518 11.613C14.3598 11.6003 14.3692 11.586 14.3798 11.57L14.6668 11.14V11.128H14.2708V11.05Z" fill="#4A5565"/>
<path d="M15.8779 11.672V11.087H15.8659L15.7509 11.35H15.6679V11.344L15.7989 11.05H15.9619V11.672H16.1599V11.75H15.6799V11.672H15.8779Z" fill="#4A5565"/>
<path d="M17.1768 11.42V11.05H17.6148V11.128H17.2588V11.378H17.2708C17.2775 11.3647 17.2862 11.352 17.2968 11.34C17.3075 11.3273 17.3198 11.3163 17.3338 11.307C17.3485 11.2977 17.3648 11.2903 17.3828 11.285C17.4008 11.279 17.4208 11.276 17.4428 11.276C17.4748 11.276 17.5042 11.2813 17.5308 11.292C17.5582 11.3027 17.5815 11.3177 17.6008 11.337C17.6202 11.3563 17.6352 11.3797 17.6458 11.407C17.6572 11.4343 17.6628 11.4647 17.6628 11.498V11.516C17.6628 11.5493 17.6575 11.581 17.6468 11.611C17.6362 11.6403 17.6205 11.6667 17.5998 11.69C17.5792 11.7127 17.5535 11.7307 17.5228 11.744C17.4922 11.7573 17.4568 11.764 17.4168 11.764C17.3762 11.764 17.3402 11.758 17.3088 11.746C17.2775 11.734 17.2512 11.7173 17.2298 11.696C17.2085 11.6747 17.1922 11.6497 17.1808 11.621C17.1702 11.5917 17.1648 11.56 17.1648 11.526V11.498H17.2488V11.52C17.2488 11.5753 17.2642 11.617 17.2948 11.645C17.3262 11.6723 17.3668 11.686 17.4168 11.686C17.4435 11.686 17.4668 11.6813 17.4868 11.672C17.5075 11.662 17.5245 11.649 17.5378 11.633C17.5518 11.6163 17.5622 11.5973 17.5688 11.576C17.5755 11.554 17.5788 11.5313 17.5788 11.508V11.502C17.5788 11.4813 17.5752 11.462 17.5678 11.444C17.5612 11.426 17.5515 11.4103 17.5388 11.397C17.5268 11.3837 17.5118 11.3733 17.4938 11.366C17.4765 11.358 17.4575 11.354 17.4368 11.354C17.4228 11.354 17.4098 11.356 17.3978 11.36C17.3865 11.364 17.3765 11.3693 17.3678 11.376C17.3592 11.382 17.3518 11.389 17.3458 11.397C17.3405 11.405 17.3368 11.4127 17.3348 11.42H17.1768Z" fill="#4A5565"/>
<path d="M20.1259 11.402V11.286L20.3539 11.14V11.128H19.9579V11.05H20.4259V11.178L20.1979 11.324V11.336H20.2379C20.2645 11.336 20.2902 11.3403 20.3149 11.349C20.3395 11.3577 20.3612 11.3703 20.3799 11.387C20.3992 11.4037 20.4145 11.4243 20.4259 11.449C20.4379 11.473 20.4439 11.501 20.4439 11.533V11.551C20.4439 11.581 20.4379 11.609 20.4259 11.635C20.4139 11.661 20.3972 11.6837 20.3759 11.703C20.3545 11.7217 20.3292 11.7367 20.2999 11.748C20.2712 11.7587 20.2399 11.764 20.2059 11.764C20.1665 11.764 20.1312 11.758 20.0999 11.746C20.0685 11.734 20.0419 11.7177 20.0199 11.697C19.9979 11.6757 19.9809 11.651 19.9689 11.623C19.9575 11.5943 19.9519 11.564 19.9519 11.532V11.478H20.0359V11.526C20.0359 11.5513 20.0399 11.574 20.0479 11.594C20.0565 11.6133 20.0682 11.63 20.0829 11.644C20.0982 11.6573 20.1162 11.6677 20.1369 11.675C20.1575 11.6823 20.1799 11.686 20.2039 11.686C20.2259 11.686 20.2462 11.6823 20.2649 11.675C20.2842 11.6677 20.3009 11.6577 20.3149 11.645C20.3289 11.6317 20.3399 11.6163 20.3479 11.599C20.3559 11.581 20.3599 11.562 20.3599 11.542V11.536C20.3599 11.494 20.3465 11.4613 20.3199 11.438C20.2932 11.414 20.2599 11.402 20.2199 11.402H20.1259Z" fill="#4A5565"/>
<path d="M8.59084 12.44H9.05884V12.562L8.76384 13.008C8.74984 13.0293 8.73917 13.0477 8.73184 13.063C8.72451 13.0783 8.72084 13.094 8.72084 13.11V13.14H8.63884V13.104C8.63884 13.092 8.63984 13.0807 8.64184 13.07C8.64451 13.0593 8.64817 13.0487 8.65284 13.038C8.65817 13.0267 8.66451 13.015 8.67184 13.003C8.67984 12.9903 8.68917 12.976 8.69984 12.96L8.98684 12.53V12.518H8.59084V12.44Z" fill="#4A5565"/>
<path d="M11.6128 12.44H11.7758V12.93H11.8838V13.008H11.7758V13.14H11.6918V13.008H11.3678V12.892L11.6128 12.44ZM11.4398 12.918V12.93H11.6918V12.476H11.6798L11.4398 12.918Z" fill="#4A5565"/>
<path d="M12.8768 12.81V12.44H13.3148V12.518H12.9588V12.768H12.9708C12.9775 12.7547 12.9862 12.742 12.9968 12.73C13.0075 12.7173 13.0198 12.7063 13.0338 12.697C13.0485 12.6877 13.0648 12.6803 13.0828 12.675C13.1008 12.669 13.1208 12.666 13.1428 12.666C13.1748 12.666 13.2042 12.6713 13.2308 12.682C13.2582 12.6927 13.2815 12.7077 13.3008 12.727C13.3202 12.7463 13.3352 12.7697 13.3458 12.797C13.3572 12.8243 13.3628 12.8547 13.3628 12.888V12.906C13.3628 12.9393 13.3575 12.971 13.3468 13.001C13.3362 13.0303 13.3205 13.0567 13.2998 13.08C13.2792 13.1027 13.2535 13.1207 13.2228 13.134C13.1922 13.1473 13.1568 13.154 13.1168 13.154C13.0762 13.154 13.0402 13.148 13.0088 13.136C12.9775 13.124 12.9512 13.1073 12.9298 13.086C12.9085 13.0647 12.8922 13.0397 12.8808 13.011C12.8702 12.9817 12.8648 12.95 12.8648 12.916V12.888H12.9488V12.91C12.9488 12.9653 12.9642 13.007 12.9948 13.035C13.0262 13.0623 13.0668 13.076 13.1168 13.076C13.1435 13.076 13.1668 13.0713 13.1868 13.062C13.2075 13.052 13.2245 13.039 13.2378 13.023C13.2518 13.0063 13.2622 12.9873 13.2688 12.966C13.2755 12.944 13.2788 12.9213 13.2788 12.898V12.892C13.2788 12.8713 13.2752 12.852 13.2678 12.834C13.2612 12.816 13.2515 12.8003 13.2388 12.787C13.2268 12.7737 13.2118 12.7633 13.1938 12.756C13.1765 12.748 13.1575 12.744 13.1368 12.744C13.1228 12.744 13.1098 12.746 13.0978 12.75C13.0865 12.754 13.0765 12.7593 13.0678 12.766C13.0592 12.772 13.0518 12.779 13.0458 12.787C13.0405 12.795 13.0368 12.8027 13.0348 12.81H12.8768Z" fill="#4A5565"/>
<path d="M16.1529 13.062V13.14H15.6789V13.02C15.6789 12.988 15.6842 12.9603 15.6949 12.937C15.7055 12.913 15.7205 12.8927 15.7399 12.876C15.7599 12.8587 15.7839 12.8443 15.8119 12.833C15.8399 12.8217 15.8715 12.812 15.9069 12.804C15.9662 12.7907 16.0089 12.7717 16.0349 12.747C16.0615 12.7223 16.0749 12.692 16.0749 12.656V12.65C16.0749 12.632 16.0719 12.6143 16.0659 12.597C16.0599 12.5797 16.0505 12.564 16.0379 12.55C16.0252 12.536 16.0089 12.525 15.9889 12.517C15.9695 12.5083 15.9462 12.504 15.9189 12.504C15.8675 12.504 15.8275 12.5197 15.7989 12.551C15.7709 12.5823 15.7569 12.624 15.7569 12.676V12.72H15.6729V12.67C15.6729 12.638 15.6782 12.6073 15.6889 12.578C15.6995 12.5487 15.7152 12.5227 15.7359 12.5C15.7565 12.4773 15.7822 12.4593 15.8129 12.446C15.8435 12.4327 15.8789 12.426 15.9189 12.426C15.9595 12.426 15.9949 12.4323 16.0249 12.445C16.0549 12.457 16.0799 12.4733 16.0999 12.494C16.1199 12.514 16.1345 12.537 16.1439 12.563C16.1539 12.5883 16.1589 12.6143 16.1589 12.641V12.659C16.1589 12.7123 16.1422 12.758 16.1089 12.796C16.0755 12.8333 16.0222 12.86 15.9489 12.876C15.8849 12.89 15.8379 12.9087 15.8079 12.932C15.7779 12.9547 15.7629 12.988 15.7629 13.032V13.062H16.1529Z" fill="#4A5565"/>
<path d="M18.7959 13.154C18.7605 13.154 18.7285 13.1493 18.6999 13.14C18.6712 13.13 18.6465 13.1167 18.6259 13.1C18.6052 13.0827 18.5892 13.0627 18.5779 13.04C18.5672 13.0167 18.5619 12.9913 18.5619 12.964V12.952C18.5619 12.928 18.5655 12.9067 18.5729 12.888C18.5802 12.8693 18.5899 12.853 18.6019 12.839C18.6139 12.825 18.6275 12.8133 18.6429 12.804C18.6589 12.7947 18.6752 12.7877 18.6919 12.783V12.771C18.6765 12.7663 18.6622 12.7593 18.6489 12.75C18.6355 12.7407 18.6235 12.7297 18.6129 12.717C18.6029 12.7043 18.5949 12.69 18.5889 12.674C18.5829 12.6573 18.5799 12.6393 18.5799 12.62V12.608C18.5799 12.5813 18.5852 12.557 18.5959 12.535C18.6065 12.5123 18.6215 12.493 18.6409 12.477C18.6609 12.461 18.6842 12.4487 18.7109 12.44C18.7382 12.4307 18.7685 12.426 18.8019 12.426H18.8079C18.8405 12.426 18.8705 12.4307 18.8979 12.44C18.9252 12.4487 18.9485 12.461 18.9679 12.477C18.9879 12.493 19.0032 12.5123 19.0139 12.535C19.0245 12.557 19.0299 12.5813 19.0299 12.608V12.62C19.0299 12.6393 19.0269 12.6573 19.0209 12.674C19.0149 12.69 19.0065 12.7043 18.9959 12.717C18.9859 12.7297 18.9739 12.7407 18.9599 12.75C18.9465 12.7593 18.9325 12.7663 18.9179 12.771V12.783C18.9345 12.7877 18.9505 12.7947 18.9659 12.804C18.9819 12.8133 18.9959 12.825 19.0079 12.839C19.0199 12.853 19.0295 12.8693 19.0369 12.888C19.0442 12.9067 19.0479 12.928 19.0479 12.952V12.964C19.0479 12.9913 19.0422 13.0167 19.0309 13.04C19.0202 13.0627 19.0045 13.0827 18.9839 13.1C18.9632 13.1167 18.9385 13.13 18.9099 13.14C18.8812 13.1493 18.8492 13.154 18.8139 13.154H18.7959ZM18.8109 13.078C18.8562 13.078 18.8929 13.0663 18.9209 13.043C18.9495 13.0197 18.9639 12.9893 18.9639 12.952V12.946C18.9639 12.9047 18.9492 12.8727 18.9199 12.85C18.8912 12.8273 18.8539 12.816 18.8079 12.816H18.8019C18.7559 12.816 18.7182 12.8273 18.6889 12.85C18.6602 12.8727 18.6459 12.9047 18.6459 12.946V12.952C18.6459 12.9893 18.6599 13.0197 18.6879 13.043C18.7165 13.0663 18.7535 13.078 18.7989 13.078H18.8109ZM18.8049 12.738C18.8469 12.738 18.8809 12.727 18.9069 12.705C18.9329 12.683 18.9459 12.6553 18.9459 12.622V12.616C18.9459 12.582 18.9329 12.5547 18.9069 12.534C18.8815 12.5127 18.8475 12.502 18.8049 12.502C18.7622 12.502 18.7279 12.5127 18.7019 12.534C18.6765 12.5547 18.6639 12.582 18.6639 12.616V12.622C18.6639 12.6553 18.6769 12.683 18.7029 12.705C18.7289 12.727 18.7629 12.738 18.8049 12.738Z" fill="#4A5565"/>
<path d="M9.97685 14.21V13.84H10.4148V13.918H10.0588V14.168H10.0708C10.0775 14.1547 10.0862 14.142 10.0968 14.13C10.1075 14.1173 10.1198 14.1063 10.1338 14.097C10.1485 14.0877 10.1648 14.0803 10.1828 14.075C10.2008 14.069 10.2208 14.066 10.2428 14.066C10.2748 14.066 10.3042 14.0713 10.3308 14.082C10.3582 14.0927 10.3815 14.1077 10.4008 14.127C10.4202 14.1463 10.4352 14.1697 10.4458 14.197C10.4572 14.2243 10.4628 14.2547 10.4628 14.288V14.306C10.4628 14.3393 10.4575 14.371 10.4468 14.401C10.4362 14.4303 10.4205 14.4567 10.3998 14.48C10.3792 14.5027 10.3535 14.5207 10.3228 14.534C10.2922 14.5473 10.2568 14.554 10.2168 14.554C10.1762 14.554 10.1402 14.548 10.1088 14.536C10.0775 14.524 10.0512 14.5073 10.0298 14.486C10.0085 14.4647 9.99218 14.4397 9.98085 14.411C9.97018 14.3817 9.96485 14.35 9.96485 14.316V14.288H10.0488V14.31C10.0488 14.3653 10.0642 14.407 10.0948 14.435C10.1262 14.4623 10.1668 14.476 10.2168 14.476C10.2435 14.476 10.2668 14.4713 10.2868 14.462C10.3075 14.452 10.3245 14.439 10.3378 14.423C10.3518 14.4063 10.3622 14.3873 10.3688 14.366C10.3755 14.344 10.3788 14.3213 10.3788 14.298V14.292C10.3788 14.2713 10.3752 14.252 10.3678 14.234C10.3612 14.216 10.3515 14.2003 10.3388 14.187C10.3268 14.1737 10.3118 14.1633 10.2938 14.156C10.2765 14.148 10.2575 14.144 10.2368 14.144C10.2228 14.144 10.2098 14.146 10.1978 14.15C10.1865 14.154 10.1765 14.1593 10.1678 14.166C10.1592 14.172 10.1518 14.179 10.1458 14.187C10.1405 14.195 10.1368 14.2027 10.1348 14.21H9.97685Z" fill="#4A5565"/>
<path d="M11.5878 14.462V13.877H11.5758L11.4608 14.14H11.3778V14.134L11.5088 13.84H11.6718V14.462H11.8698V14.54H11.3898V14.462H11.5878Z" fill="#4A5565"/>
<path d="M14.5058 14.554C14.4705 14.554 14.4385 14.5493 14.4098 14.54C14.3812 14.53 14.3565 14.5167 14.3358 14.5C14.3152 14.4827 14.2992 14.4627 14.2878 14.44C14.2772 14.4167 14.2718 14.3913 14.2718 14.364V14.352C14.2718 14.328 14.2755 14.3067 14.2828 14.288C14.2902 14.2693 14.2998 14.253 14.3118 14.239C14.3238 14.225 14.3375 14.2133 14.3528 14.204C14.3688 14.1947 14.3852 14.1877 14.4018 14.183V14.171C14.3865 14.1663 14.3722 14.1593 14.3588 14.15C14.3455 14.1407 14.3335 14.1297 14.3228 14.117C14.3128 14.1043 14.3048 14.09 14.2988 14.074C14.2928 14.0573 14.2898 14.0393 14.2898 14.02V14.008C14.2898 13.9813 14.2952 13.957 14.3058 13.935C14.3165 13.9123 14.3315 13.893 14.3508 13.877C14.3708 13.861 14.3942 13.8487 14.4208 13.84C14.4482 13.8307 14.4785 13.826 14.5118 13.826H14.5178C14.5505 13.826 14.5805 13.8307 14.6078 13.84C14.6352 13.8487 14.6585 13.861 14.6778 13.877C14.6978 13.893 14.7132 13.9123 14.7238 13.935C14.7345 13.957 14.7398 13.9813 14.7398 14.008V14.02C14.7398 14.0393 14.7368 14.0573 14.7308 14.074C14.7248 14.09 14.7165 14.1043 14.7058 14.117C14.6958 14.1297 14.6838 14.1407 14.6698 14.15C14.6565 14.1593 14.6425 14.1663 14.6278 14.171V14.183C14.6445 14.1877 14.6605 14.1947 14.6758 14.204C14.6918 14.2133 14.7058 14.225 14.7178 14.239C14.7298 14.253 14.7395 14.2693 14.7468 14.288C14.7542 14.3067 14.7578 14.328 14.7578 14.352V14.364C14.7578 14.3913 14.7522 14.4167 14.7408 14.44C14.7302 14.4627 14.7145 14.4827 14.6938 14.5C14.6732 14.5167 14.6485 14.53 14.6198 14.54C14.5912 14.5493 14.5592 14.554 14.5238 14.554H14.5058ZM14.5208 14.478C14.5662 14.478 14.6028 14.4663 14.6308 14.443C14.6595 14.4197 14.6738 14.3893 14.6738 14.352V14.346C14.6738 14.3047 14.6592 14.2727 14.6298 14.25C14.6012 14.2273 14.5638 14.216 14.5178 14.216H14.5118C14.4658 14.216 14.4282 14.2273 14.3988 14.25C14.3702 14.2727 14.3558 14.3047 14.3558 14.346V14.352C14.3558 14.3893 14.3698 14.4197 14.3978 14.443C14.4265 14.4663 14.4635 14.478 14.5088 14.478H14.5208ZM14.5148 14.138C14.5568 14.138 14.5908 14.127 14.6168 14.105C14.6428 14.083 14.6558 14.0553 14.6558 14.022V14.016C14.6558 13.982 14.6428 13.9547 14.6168 13.934C14.5915 13.9127 14.5575 13.902 14.5148 13.902C14.4722 13.902 14.4378 13.9127 14.4118 13.934C14.3865 13.9547 14.3738 13.982 14.3738 14.016V14.022C14.3738 14.0553 14.3868 14.083 14.4128 14.105C14.4388 14.127 14.4728 14.138 14.5148 14.138Z" fill="#4A5565"/>
<path d="M15.8459 14.192V14.076L16.0739 13.93V13.918H15.6779V13.84H16.1459V13.968L15.9179 14.114V14.126H15.9579C15.9845 14.126 16.0102 14.1303 16.0349 14.139C16.0595 14.1477 16.0812 14.1603 16.0999 14.177C16.1192 14.1937 16.1345 14.2143 16.1459 14.239C16.1579 14.263 16.1639 14.291 16.1639 14.323V14.341C16.1639 14.371 16.1579 14.399 16.1459 14.425C16.1339 14.451 16.1172 14.4737 16.0959 14.493C16.0745 14.5117 16.0492 14.5267 16.0199 14.538C15.9912 14.5487 15.9599 14.554 15.9259 14.554C15.8865 14.554 15.8512 14.548 15.8199 14.536C15.7885 14.524 15.7619 14.5077 15.7399 14.487C15.7179 14.4657 15.7009 14.441 15.6889 14.413C15.6775 14.3843 15.6719 14.354 15.6719 14.322V14.268H15.7559V14.316C15.7559 14.3413 15.7599 14.364 15.7679 14.384C15.7765 14.4033 15.7882 14.42 15.8029 14.434C15.8182 14.4473 15.8362 14.4577 15.8569 14.465C15.8775 14.4723 15.8999 14.476 15.9239 14.476C15.9459 14.476 15.9662 14.4723 15.9849 14.465C16.0042 14.4577 16.0209 14.4477 16.0349 14.435C16.0489 14.4217 16.0599 14.4063 16.0679 14.389C16.0759 14.371 16.0799 14.352 16.0799 14.332V14.326C16.0799 14.284 16.0665 14.2513 16.0399 14.228C16.0132 14.204 15.9799 14.192 15.9399 14.192H15.8459Z" fill="#4A5565"/>
<path d="M17.1708 13.84H17.6388V13.962L17.3438 14.408C17.3298 14.4293 17.3192 14.4477 17.3118 14.463C17.3045 14.4783 17.3008 14.494 17.3008 14.51V14.54H17.2188V14.504C17.2188 14.492 17.2198 14.4807 17.2218 14.47C17.2245 14.4593 17.2282 14.4487 17.2328 14.438C17.2382 14.4267 17.2445 14.415 17.2518 14.403C17.2598 14.3903 17.2692 14.376 17.2798 14.36L17.5668 13.93V13.918H17.1708V13.84Z" fill="#4A5565"/>
<path d="M18.7929 13.84H18.9559V14.33H19.0639V14.408H18.9559V14.54H18.8719V14.408H18.5479V14.292L18.7929 13.84ZM18.6199 14.318V14.33H18.8719V13.876H18.8599L18.6199 14.318Z" fill="#4A5565"/>
</svg>
