<svg width="30" height="17" viewBox="0 0 30 17" fill="none" xmlns="http://www.w3.org/2000/svg">
<rect x="8.5" y="2.07" width="4" height="4" rx="0.3" fill="#D9D9D9"/>
<path d="M9.5 5.12C11.1 3.52 11.5 3.12 11.5 3.12" stroke="#00BBA7" stroke-width="0.2" stroke-linecap="round"/>
<path d="M9.5 3.12C11.1 4.72 11.5 5.12 11.5 5.12" stroke="#00BBA7" stroke-width="0.2" stroke-linecap="round"/>
<rect x="12.97" y="2.07" width="4" height="4" rx="0.3" fill="#D9D9D9"/>
<rect x="17.44" y="2.07" width="4" height="4" rx="0.3" fill="#D9D9D9"/>
<path d="M19.44 3.21023C19.9288 3.21023 20.3248 3.60623 20.3248 4.095C20.3248 4.58377 19.9288 4.97977 19.44 4.97977C18.9512 4.97977 18.5552 4.58377 18.5552 4.095C18.5552 3.60623 18.9512 3.21023 19.44 3.21023Z" stroke="#FE9A00" stroke-width="0.23"/>
<rect x="8.5" y="6.49" width="4" height="4" rx="0.3" fill="#D9D9D9"/>
<path d="M10.5 7.63023C10.9888 7.63023 11.3848 8.02623 11.3848 8.515C11.3848 9.00377 10.9888 9.39977 10.5 9.39977C10.0112 9.39977 9.61523 9.00377 9.61523 8.515C9.61523 8.02623 10.0112 7.63023 10.5 7.63023Z" stroke="#FE9A00" stroke-width="0.23"/>
<rect x="12.97" y="6.49" width="4" height="4" rx="0.3" fill="#D9D9D9"/>
<path d="M14.97 7.63023C15.4588 7.63023 15.8548 8.02623 15.8548 8.515C15.8548 9.00377 15.4588 9.39977 14.97 9.39977C14.4812 9.39977 14.0852 9.00377 14.0852 8.515C14.0852 8.02623 14.4812 7.63023 14.97 7.63023Z" stroke="#FE9A00" stroke-width="0.23"/>
<rect x="17.44" y="6.49" width="4" height="4" rx="0.3" fill="#D9D9D9"/>
<rect x="8.5" y="10.91" width="4" height="4" rx="0.3" fill="#D9D9D9"/>
<path d="M9.5 13.96C11.1 12.36 11.5 11.96 11.5 11.96" stroke="#00BBA7" stroke-width="0.2" stroke-linecap="round"/>
<path d="M9.5 11.96C11.1 13.56 11.5 13.96 11.5 13.96" stroke="#00BBA7" stroke-width="0.2" stroke-linecap="round"/>
<rect x="12.97" y="10.91" width="4" height="4" rx="0.3" fill="#D9D9D9"/>
<rect x="17.44" y="10.91" width="4" height="4" rx="0.3" fill="#D9D9D9"/>
<path d="M18.44 13.96C20.04 12.36 20.44 11.96 20.44 11.96" stroke="#00BBA7" stroke-width="0.2" stroke-linecap="round"/>
<path d="M18.44 11.96C20.04 13.56 20.44 13.96 20.44 13.96" stroke="#00BBA7" stroke-width="0.2" stroke-linecap="round"/>
</svg>
