<svg width="407" height="457" viewBox="0 0 407 457" fill="none" xmlns="http://www.w3.org/2000/svg">
<path d="M403 104L203 5L154 228H253L204 452.5L403 353V104Z" fill="#1677FF"/>
<path d="M4 103.906V353L204 452.5L253 228H154L203 5L4 103.906Z" fill="#FF4D4F"/>
<path d="M203 5L4 103.906V353L204 452.5M203 5L403 104V353L204 452.5M203 5L154 228H253L204 452.5" stroke="#141414" stroke-width="8"/>
<mask id="mask0_5_552" style="mask-type:alpha" maskUnits="userSpaceOnUse" x="1" y="2" width="405" height="454">
<path d="M403 104L203 5L154 228H253L204 452.5L403 353V104Z" fill="white"/>
<path d="M203 5L4 103.906V353L204 452.5M203 5L403 104V353L204 452.5M203 5L154 228H253L204 452.5" stroke="#141414" stroke-width="5"/>
</mask>
<g mask="url(#mask0_5_552)">
<path d="M215.81 240.757C215.298 239.33 215.461 237.748 216.253 236.455L224.22 223.457C224.406 223.153 224.624 222.869 224.872 222.614C228.397 218.983 230.814 217.283 235.5 215C240.676 212.645 244.5 211.5 249 211C252.871 210.57 257.111 211.62 258.222 211.922C258.41 211.973 258.596 212.016 258.788 212.048V212.048C260.46 212.327 262.143 211.662 263.217 210.352C266.753 206.043 269.581 203.35 274.222 199.245C274.406 199.083 274.605 198.932 274.811 198.799C280.153 195.349 283.45 193.769 289.5 191.5C294.831 189.426 297.93 188.992 303.5 188.5C305.925 188.053 309.127 188.216 311.997 188.619C315.478 189.108 322.522 191.812 325.683 193.351C327.344 194.16 329.053 195.013 330.466 195.729C330.822 195.909 331.154 196.132 331.456 196.393C335.301 199.728 337.344 201.919 340.5 206C343.519 209.595 344.432 211.539 346 215C347.534 219.544 347.943 222.049 348.5 226.5C349.044 231.604 348.974 234.537 348.544 239.503C348.515 239.833 348.453 240.161 348.357 240.479C346.692 246.043 345.451 249.044 343 254C339.917 258.564 338.02 260.793 334.5 264.5C332.105 267.209 330.618 268.908 328.316 271.56C327.78 272.177 327.388 272.913 327.253 273.719C327.079 274.768 327.04 275.702 327.158 276.848C327.3 278.231 328.147 279.473 329.43 280.007C330.171 280.314 330.908 280.524 331.772 280.701C332.884 280.929 334.04 280.697 335.01 280.106C337.66 278.494 339.05 277.348 340.5 275.5C341.738 273.846 342.681 272.613 343.441 271.674C344.722 270.09 346.973 270.362 348.157 272.02V272.02C348.384 272.338 348.56 272.691 348.67 273.065C350.246 278.412 350.163 281.543 350.5 287C350.646 294.372 350.109 298.407 348.5 305.5C346.621 311.837 345.349 315.257 342.5 321C340.034 325.362 338.421 327.723 335.599 331.855L335.5 332C331.974 336.183 329.802 338.286 325.5 341.5C321.492 344.732 318.542 345.96 312.5 347.5C307.033 348.35 303.967 348.494 298.5 347.5C293.919 346.047 291.506 344.921 288.302 341.798C288.1 341.601 287.917 341.384 287.755 341.153C285.36 337.748 284.241 335.701 283.5 332C283.19 327.6 283.259 325.169 284.5 321C286.089 314.937 287.234 311.818 289.5 306.5C292.399 300.681 294.253 297.395 298.221 291.886C298.406 291.63 298.568 291.355 298.702 291.069C301.499 285.096 303.128 281.621 305.711 276.117C305.902 275.708 306.039 275.273 306.113 274.827C306.925 269.96 307.245 266.966 307.027 262.071C307.011 261.692 306.948 261.314 306.84 260.95C305.593 256.728 304.394 254.344 301.5 250.5C298.971 247.697 297.272 245.898 293.824 243.686C292.144 242.608 291.108 240.711 291.38 238.734C291.612 237.039 291.919 235.405 292.5 233C293.028 228.135 293.126 225.473 292.5 221C292.092 218.09 291.55 216.535 290.018 214.62C289.684 214.202 289.269 213.853 288.795 213.605C287.806 213.088 286.962 212.816 285.846 212.648C284.969 212.517 284.065 212.679 283.307 213.14C282.054 213.902 281.31 214.716 280.583 215.938C280.176 216.622 280 217.415 280 218.211V225V235.828C280 236.274 279.938 236.718 279.815 237.146V237.146C279.316 238.895 277.871 240.219 276.078 240.525C272.707 241.102 269.967 241.453 265.95 241.896C265.323 241.965 264.712 242.151 264.155 242.447C261.298 243.96 259.283 245.061 256.092 246.877C255.375 247.285 254.778 247.871 254.325 248.56C254.071 248.946 253.821 249.307 253.54 249.677C252.395 251.187 251.866 253.143 252.586 254.897C252.619 254.98 252.653 255.062 252.688 255.143C253.429 256.916 255.221 257.989 257.143 257.992C257.477 257.993 257.843 257.994 258.25 257.995C259.07 257.998 259.881 257.801 260.604 257.412C262.898 256.181 264.303 255.346 266.5 254C270.799 251.547 273.206 250.839 277.5 250.5C280.372 250.66 281 251 284.5 252C287.063 252.732 288.599 253.648 290.382 254.54C291.701 255.2 292.769 256.307 293.235 257.706L294.377 261.131C294.459 261.377 294.522 261.628 294.563 261.884C295.161 265.615 295.041 267.722 294.559 271.092C294.52 271.363 294.458 271.632 294.374 271.892C292.966 276.227 291.864 278.609 289.5 282.5C287.475 286.731 285.641 288.549 282 291.5C278.748 294.181 276.924 295.301 273.998 296.754C273.668 296.918 273.318 297.044 272.959 297.128C266.746 298.591 263.172 299.058 257 299.5C254.523 299.831 252.77 300.015 250.462 299.878C248.451 299.759 246.536 300.893 245.898 302.804V302.804C245.357 304.429 245.879 306.208 247.166 307.338C247.467 307.602 247.763 307.867 248.076 308.151C248.686 308.705 249.417 309.113 250.217 309.31C253.557 310.132 255.486 310.346 258.5 310.5C261.92 310.555 263.865 310.557 266.963 310.509C267.319 310.503 267.676 310.459 268.023 310.377C269.926 309.93 271.164 309.632 273.5 309V309C274.585 308.566 275.723 309.5 275.489 310.645C274.735 314.338 273.947 317.107 272.31 321.229C272.107 321.739 271.983 322.282 271.954 322.83C271.694 327.772 271.752 330.664 271.957 335.082C271.985 335.689 272.124 336.286 272.368 336.842C273.608 339.675 274.431 341.45 276 344C277.801 347.086 278.966 348.657 281.5 351C284.388 353.725 286.38 354.865 290.063 356.328C290.353 356.443 290.654 356.529 290.961 356.586L296.438 357.613C297.633 357.837 298.5 358.882 298.5 360.098V360.098C298.5 360.681 298.299 361.248 297.927 361.697C296.134 363.867 294.998 365.111 293.366 366.656C293.123 366.886 292.857 367.088 292.572 367.262C290.771 368.363 289.512 369.101 287.36 370.3C287.121 370.433 286.87 370.546 286.613 370.639C283.991 371.588 282.514 372.266 281.155 373.407C280.707 373.783 280.37 374.27 280.114 374.796C278.777 377.54 277.864 379.217 276 381.5C274.583 383.207 273.409 384.229 270.5 386C267.025 388.275 264.853 389.467 260.938 391.296C260.647 391.432 260.342 391.539 260.031 391.615C256.456 392.49 254.084 392.954 249.432 393.454C249.145 393.485 248.853 393.49 248.564 393.469C241.134 392.939 236.998 392.125 230.52 389.696C230.175 389.567 229.844 389.397 229.537 389.193C226.642 387.274 224.953 386.102 223 384C217.788 378.923 215.858 375.694 213.666 370.586C213.227 369.562 213.162 368.417 213.46 367.343L218 351L224 336V336C224.753 333.992 227.215 333.258 228.945 334.526L232.495 337.13C232.83 337.376 233.134 337.662 233.398 337.983L239.264 345.106C239.748 345.694 240.092 346.385 240.268 347.126L242.182 355.163C242.39 356.038 242.358 356.953 242.09 357.812L240.712 362.221C240.262 363.663 240.487 365.23 241.324 366.486L241.749 367.124C243.035 369.052 245.556 369.722 247.63 368.685V368.685C248.519 368.24 249.24 367.519 249.685 366.629L251.242 363.516C251.413 363.173 251.545 362.812 251.634 362.438L253.677 353.855C253.888 352.969 253.853 352.041 253.575 351.173L250.235 340.736C250.079 340.248 249.849 339.787 249.553 339.37L241.935 328.614C241.647 328.207 241.299 327.845 240.903 327.541L235 323L227.402 317.001C226.201 316.053 225.5 314.607 225.5 313.077V288L222.066 258.57C222.022 258.191 221.935 257.819 221.806 257.46L215.81 240.757Z" fill="#141414"/>
<path d="M335.5 332C331.974 336.183 329.802 338.286 325.5 341.5C321.492 344.732 318.542 345.96 312.5 347.5C307.033 348.35 303.967 348.494 298.5 347.5C293.919 346.047 291.506 344.921 288.302 341.798C288.1 341.601 287.917 341.384 287.755 341.153C285.36 337.748 284.241 335.701 283.5 332C283.19 327.6 283.259 325.169 284.5 321C286.089 314.937 287.234 311.818 289.5 306.5C292.399 300.681 294.253 297.395 298.221 291.886C298.406 291.63 298.568 291.355 298.702 291.069C301.499 285.096 303.128 281.621 305.711 276.117C305.902 275.708 306.039 275.273 306.113 274.827C306.925 269.96 307.245 266.966 307.027 262.071C307.011 261.692 306.948 261.314 306.84 260.95C305.593 256.728 304.394 254.344 301.5 250.5C298.971 247.697 297.272 245.898 293.824 243.686C292.144 242.608 291.108 240.711 291.38 238.734C291.612 237.039 291.919 235.405 292.5 233C293.028 228.135 293.126 225.473 292.5 221C292.092 218.09 291.55 216.535 290.018 214.62C289.684 214.202 289.269 213.853 288.795 213.605C287.806 213.088 286.962 212.816 285.846 212.648C284.969 212.517 284.065 212.679 283.307 213.14C282.054 213.902 281.31 214.716 280.583 215.938C280.176 216.622 280 217.415 280 218.211V225V235.828C280 236.274 279.938 236.718 279.815 237.146V237.146C279.316 238.895 277.871 240.219 276.078 240.525C272.707 241.102 269.967 241.453 265.95 241.896C265.323 241.965 264.712 242.151 264.155 242.447C261.298 243.96 259.283 245.061 256.092 246.877C255.375 247.285 254.778 247.871 254.325 248.56C254.071 248.946 253.821 249.307 253.54 249.677C252.395 251.187 251.866 253.143 252.586 254.897C252.619 254.98 252.653 255.062 252.688 255.143C253.429 256.916 255.221 257.989 257.143 257.992C257.477 257.993 257.843 257.994 258.25 257.995C259.07 257.998 259.881 257.801 260.604 257.412C262.898 256.181 264.303 255.346 266.5 254C270.799 251.547 273.206 250.839 277.5 250.5C280.372 250.66 281 251 284.5 252C287.063 252.732 288.599 253.648 290.382 254.54C291.701 255.2 292.769 256.307 293.235 257.706L294.377 261.131C294.459 261.377 294.522 261.628 294.563 261.884C295.161 265.615 295.041 267.722 294.559 271.092C294.52 271.363 294.458 271.632 294.374 271.892C292.966 276.227 291.864 278.609 289.5 282.5C287.475 286.731 285.641 288.549 282 291.5C278.748 294.181 276.924 295.301 273.998 296.754C273.668 296.918 273.318 297.044 272.959 297.128C266.746 298.591 263.172 299.058 257 299.5C254.523 299.831 252.77 300.015 250.462 299.878C248.451 299.759 246.536 300.893 245.898 302.804V302.804C245.357 304.429 245.879 306.208 247.166 307.338C247.467 307.602 247.763 307.867 248.076 308.151C248.686 308.705 249.417 309.113 250.217 309.31C253.557 310.132 255.486 310.346 258.5 310.5C261.92 310.555 263.865 310.557 266.963 310.509C267.319 310.503 267.676 310.459 268.023 310.377C269.926 309.93 271.164 309.632 273.5 309V309C274.585 308.566 275.723 309.5 275.489 310.645C274.735 314.338 273.947 317.107 272.31 321.229C272.107 321.739 271.983 322.282 271.954 322.83C271.694 327.772 271.752 330.664 271.957 335.082C271.985 335.689 272.124 336.286 272.368 336.842C273.608 339.675 274.431 341.45 276 344C277.801 347.086 278.966 348.657 281.5 351C284.388 353.725 286.38 354.865 290.063 356.328C290.353 356.443 290.654 356.529 290.961 356.586L296.438 357.613C297.633 357.837 298.5 358.882 298.5 360.098V360.098C298.5 360.681 298.299 361.248 297.927 361.697C296.134 363.867 294.998 365.111 293.366 366.656C293.123 366.886 292.857 367.088 292.572 367.262C290.771 368.363 289.512 369.101 287.36 370.3C287.121 370.433 286.87 370.546 286.613 370.639C283.991 371.588 282.514 372.266 281.155 373.407C280.707 373.783 280.37 374.27 280.114 374.796C278.777 377.54 277.864 379.217 276 381.5C274.583 383.207 273.409 384.229 270.5 386C267.025 388.275 264.853 389.467 260.938 391.296C260.647 391.432 260.342 391.539 260.031 391.615C256.456 392.49 254.084 392.954 249.432 393.454C249.145 393.485 248.853 393.49 248.564 393.469C241.134 392.939 236.998 392.125 230.52 389.696C230.175 389.567 229.844 389.397 229.537 389.193C226.642 387.274 224.953 386.102 223 384C217.788 378.923 215.858 375.694 213.666 370.586C213.227 369.562 213.162 368.417 213.46 367.343L218 351L224 336V336C224.753 333.992 227.215 333.258 228.945 334.526L232.495 337.13C232.83 337.376 233.134 337.662 233.398 337.983L239.264 345.106C239.748 345.694 240.092 346.385 240.268 347.126L242.182 355.163C242.39 356.038 242.358 356.953 242.09 357.812L240.712 362.221C240.262 363.663 240.487 365.23 241.324 366.486L241.749 367.124C243.035 369.052 245.556 369.722 247.63 368.685V368.685C248.519 368.24 249.24 367.519 249.685 366.629L251.242 363.516C251.413 363.173 251.545 362.812 251.634 362.438L253.677 353.855C253.888 352.969 253.853 352.041 253.575 351.173L250.235 340.736C250.079 340.248 249.849 339.787 249.553 339.37L241.935 328.614C241.647 328.207 241.299 327.845 240.903 327.541L235 323L227.402 317.001C226.201 316.053 225.5 314.607 225.5 313.077V288L222.066 258.57C222.022 258.191 221.935 257.819 221.806 257.46L215.81 240.757C215.298 239.33 215.461 237.748 216.253 236.455L224.22 223.457C224.406 223.153 224.624 222.869 224.872 222.614C228.397 218.983 230.814 217.283 235.5 215C240.676 212.645 244.5 211.5 249 211C252.871 210.57 257.111 211.62 258.222 211.922C258.41 211.973 258.596 212.016 258.788 212.048V212.048C260.46 212.327 262.143 211.662 263.217 210.352C266.753 206.043 269.581 203.35 274.222 199.245C274.406 199.083 274.605 198.932 274.811 198.799C280.153 195.349 283.45 193.769 289.5 191.5C294.831 189.426 297.93 188.992 303.5 188.5C305.925 188.053 309.127 188.216 311.997 188.619C315.478 189.108 322.522 191.812 325.683 193.351C327.344 194.16 329.053 195.013 330.466 195.729C330.822 195.909 331.154 196.132 331.456 196.393C335.301 199.728 337.344 201.919 340.5 206C343.519 209.595 344.432 211.539 346 215C347.534 219.544 347.943 222.049 348.5 226.5C349.044 231.604 348.974 234.537 348.544 239.503C348.515 239.833 348.453 240.161 348.357 240.479C346.692 246.043 345.451 249.044 343 254C339.917 258.564 338.02 260.793 334.5 264.5C332.105 267.209 330.618 268.908 328.316 271.56C327.78 272.177 327.388 272.913 327.253 273.719C327.079 274.768 327.04 275.702 327.158 276.848C327.3 278.231 328.147 279.473 329.43 280.007C330.171 280.314 330.908 280.524 331.772 280.701C332.884 280.929 334.04 280.697 335.01 280.106C337.66 278.494 339.05 277.348 340.5 275.5C341.738 273.846 342.681 272.613 343.441 271.674C344.722 270.09 346.973 270.362 348.157 272.02V272.02C348.384 272.338 348.56 272.691 348.67 273.065C350.246 278.412 350.163 281.543 350.5 287C350.646 294.372 350.109 298.407 348.5 305.5C346.621 311.837 345.349 315.257 342.5 321C340.034 325.362 338.421 327.723 335.599 331.855M335.5 332L335.599 331.855M335.5 332C335.533 331.951 335.566 331.903 335.599 331.855" stroke="#141414"/>
<path d="M149.266 212.074C151.265 209.893 154.625 210.001 156.775 212.034C158.695 213.848 160.837 215.342 164.5 217C169.999 219.214 172.925 219.733 178 220L178.093 220.009C178.654 220.066 179.177 220.119 179.675 220.163C183.327 220.481 187.229 223.341 187 227V227L186.166 233.253C186.06 234.052 186.271 234.861 186.755 235.506V235.506C188.286 237.548 186.81 240.459 184.258 240.43L150.052 240.046C147.69 240.019 145.669 238.343 145.205 236.026L142.498 222.488C142.185 220.924 142.637 219.305 143.715 218.129L149.266 212.074Z" fill="#141414"/>
<path d="M178 220C172.925 219.733 169.999 219.214 164.5 217C160.837 215.342 158.695 213.848 156.775 212.034C154.625 210.001 151.265 209.893 149.266 212.074L143.715 218.129C142.637 219.305 142.185 220.924 142.498 222.488L145.205 236.026C145.669 238.343 147.69 240.019 150.052 240.046L184.258 240.43C186.81 240.459 188.286 237.548 186.755 235.506V235.506C186.271 234.861 186.06 234.052 186.166 233.253L187 227V227C187.229 223.341 183.327 220.481 179.675 220.163C179.177 220.119 178.654 220.066 178.093 220.009M178 220L178.093 220.009M178 220C178.031 220.003 178.062 220.006 178.093 220.009" stroke="#141414"/>
<path d="M206.5 135.5C205.783 135.198 205.561 131.378 205.639 128.674C205.687 126.973 206.24 124.995 206.793 123.386C208.149 119.45 209.744 117.228 211.947 113.9C212.924 112.423 212.989 110.54 212.215 108.947C210.156 104.711 209.03 101.454 208.082 95.984C208.027 95.6634 208.004 95.3351 208.015 95.0099C208.196 89.3029 208.568 86.1194 209.409 81.0451C209.469 80.683 209.569 80.3277 209.709 79.9883C212.063 74.2755 213.924 71.0886 218.5 66C222.459 62.2139 224.865 60.4053 229.11 57.7438C229.369 57.5814 229.644 57.4431 229.929 57.3322C235.515 55.1591 238.859 54.2236 244.461 53.1067C244.819 53.0353 245.185 53.0044 245.55 53.0142C251.694 53.1802 255.21 53.5192 261 55C266.472 56.853 269.157 58.2104 273.5 61C278.624 65.3014 280.912 67.8472 284.5 72.5C286.434 75.5037 287.169 77.2627 288 80.5C289.155 84.5349 289.504 86.781 289.936 90.4497C289.979 90.8146 289.981 91.1851 289.941 91.5505C289.4 96.5757 288.938 99.2259 288 103.5C286.48 108.085 285.787 109.132 284.5 111.5C283.14 113.863 282.323 115.13 280.5 117C277.794 120.118 276.128 121.609 273 124C270.665 125.646 269.306 126.597 266.5 128.5C263.673 130.436 261.974 131.534 258.96 133.241C258.655 133.413 258.366 133.618 258.103 133.849C255.609 136.034 254.033 137.301 251.617 139.055C251.209 139.351 250.845 139.705 250.541 140.107C248.151 143.267 246.562 145.286 243.857 148.567C243.62 148.854 243.416 149.168 243.243 149.498C242.22 151.441 240.768 153.781 240.22 154.652C240.074 154.884 239.945 155.127 239.837 155.38C238.272 159.043 237.451 161 236.272 163.844C236.091 164.279 235.973 164.738 235.921 165.205L235.726 166.96C235.582 168.263 235.974 169.569 236.814 170.577V170.577C237.577 171.493 238.653 172.093 239.834 172.262L240.234 172.319C241.065 172.438 241.911 172.346 242.697 172.051L243.461 171.765C244.761 171.277 245.8 170.271 246.329 168.987L248.857 162.847C248.952 162.616 249.064 162.392 249.193 162.178L254.683 153.028C254.893 152.677 255.146 152.354 255.435 152.065L264.612 142.888C264.87 142.63 265.155 142.401 265.463 142.205L268.331 140.38C269.667 139.53 271.088 139.706 272 141V141L275 146.5L277.25 152.351C277.416 152.781 277.521 153.233 277.563 153.693L277.859 156.949C277.951 157.959 278.348 158.917 278.997 159.697L279.312 160.074C280.078 160.994 281.149 161.608 282.331 161.805L282.737 161.873C283.242 161.957 283.758 161.963 284.266 161.891L285.151 161.764C286.341 161.594 287.426 160.989 288.195 160.065V160.065C289.03 159.064 289.427 157.769 289.297 156.473L289 153.5L288.073 148.402C288.024 148.135 287.954 147.871 287.862 147.615L285.5 141L283.675 137.351C283.558 137.117 283.424 136.893 283.272 136.681L281.058 133.582C281.019 133.527 280.985 133.47 280.955 133.41V133.41C280.688 132.877 280.823 132.23 281.281 131.849L283.5 130L289 124.5L292.5 120.5L295.211 116.433C295.403 116.145 295.565 115.838 295.693 115.517L297.5 111L298.015 109.798C298.516 108.628 299.981 108.236 301 109V109L302.5 110L305.407 112.076C305.8 112.357 306.151 112.694 306.447 113.075L309.5 117L312.211 121.067C312.403 121.355 312.565 121.662 312.693 121.983L315.5 129L317.307 135.327C317.435 135.773 317.5 136.236 317.5 136.7V141.884C317.5 142.293 317.45 142.701 317.35 143.097L316.785 145.36C316.603 146.086 316.737 146.855 317.152 147.478V147.478C317.381 147.821 317.686 148.107 318.044 148.311L320.223 149.556C320.737 149.85 321.298 150.05 321.882 150.147L323.258 150.376C323.75 150.458 324.226 150.613 324.672 150.836L329 153L332.964 155.643C333.32 155.88 333.644 156.162 333.928 156.481L337.5 160.5L340.735 165.122C340.911 165.373 341.064 165.641 341.191 165.92L343.052 170.014C343.347 170.664 343.5 171.369 343.5 172.083V175.5L344 182V187.5V187.5C343.791 189.583 341.309 190.553 339.744 189.162L339 188.5L336.56 186.467C336.189 186.157 335.774 185.903 335.329 185.713L332.5 184.5L327.338 182.154C327.113 182.051 326.88 181.966 326.643 181.898L320 180L313 179L306.878 178.058C306.626 178.019 306.372 178 306.117 178H298.882C298.628 178 298.373 178.019 298.122 178.058L292.372 178.943C292.124 178.981 291.88 179.038 291.641 179.112L284.342 181.393C284.114 181.464 283.892 181.552 283.676 181.655L272.82 186.847C272.607 186.949 272.401 187.066 272.204 187.197L265.412 191.725C265.138 191.908 264.883 192.117 264.65 192.35L258.964 198.036C258.027 198.973 256.755 199.5 255.429 199.5H253L243.715 200.428C243.241 200.476 242.776 200.591 242.334 200.77L225.273 207.687C224.761 207.894 224.287 208.185 223.87 208.547L213 218V218C212.092 218.907 210.545 218.523 210.168 217.297L209.11 213.859C209.037 213.62 208.987 213.375 208.96 213.126L208 204V198.549C208 198.184 208.04 197.82 208.119 197.464L209.887 189.509C209.962 189.171 210.072 188.841 210.216 188.525L211.616 185.444C212.181 184.202 212.213 182.784 211.707 181.518L211.5 181L208.404 174.366C208.137 173.794 207.981 173.176 207.944 172.546L207.538 165.643C207.512 165.216 207.542 164.788 207.626 164.369L209.83 153.349C209.942 152.787 210.151 152.249 210.445 151.757L215.728 142.953C215.909 142.652 216.121 142.371 216.36 142.114L223 135L231 128L238.5 122L245 115.5L249.509 109.638C249.834 109.215 250.089 108.744 250.266 108.241L253.303 99.5619C253.434 99.1886 253.52 98.8012 253.559 98.4076L254.43 89.6999C254.476 89.2356 254.457 88.7671 254.374 88.308L253.876 85.5706C253.636 84.2474 252.868 83.0786 251.749 82.3326V82.3326C250.934 81.7897 249.978 81.5 248.999 81.5H248.014C247.027 81.5 246.061 81.7922 245.24 82.3397L244.927 82.5484C244.002 83.1652 243.309 84.0727 242.957 85.1275L242.256 87.2303C242.086 87.7401 242 88.274 242 88.8114V94.8845C242 95.2933 241.95 95.7005 241.85 96.0971L240.655 100.88C240.552 101.292 240.397 101.689 240.194 102.061L237.845 106.368C237.616 106.787 237.328 107.171 236.991 107.509L233 111.5L224.097 119.414C224.032 119.471 223.969 119.525 223.901 119.579C223.194 120.146 218.875 123.624 217.5 125V125C216.604 125.896 209.271 133.893 208.26 134.657C207.466 135.257 206.802 135.627 206.5 135.5Z" fill="#141414" stroke="#141414"/>
<path d="M185.559 65.1036C188.052 64.2035 190.831 65.405 191.778 67.8805C197.941 84.0055 197.776 95.5228 189.527 110.788C188.623 112.461 188.678 114.506 189.676 116.125C199.143 131.487 199.12 141.79 187.692 159.259C186.436 161.179 186.577 163.711 188.019 165.495C201.453 182.115 199.901 192.152 184.539 207.035C183.565 207.979 182.232 208.471 180.88 208.362C172.335 207.674 167.819 205.554 162.279 200.637C161.137 199.624 160.579 198.114 160.715 196.594L171.717 73.1758C171.89 71.2388 173.17 69.5776 174.999 68.9171L185.559 65.1036Z" fill="#141414" stroke="#141414" stroke-width="5"/>
</g>
<mask id="mask1_5_552" style="mask-type:alpha" maskUnits="userSpaceOnUse" x="1" y="2" width="405" height="454">
<path d="M4 103.906V353L204 452.5L253 228H154L203 5L4 103.906Z" fill="white"/>
<path d="M203 5L4 103.906V353L204 452.5M203 5L403 104V353L204 452.5M203 5L154 228H253L204 452.5" stroke="black" stroke-width="5"/>
</mask>
<g mask="url(#mask1_5_552)">
<path d="M79.5 135.5C87.7178 135.411 93.318 134.785 101.5 132C110.398 128.33 115.093 126.44 123 123.5C130.312 120.298 134.486 118.691 142 116C148.191 114.072 151.811 113.435 158.5 113C164.759 112.535 167.55 112.974 172.08 113.413C172.688 113.472 173.294 113.601 173.881 113.772C175.197 114.156 177.735 114.893 179.948 115.801C180.969 116.22 182.09 116.608 183.09 117.076C184.978 117.958 188.063 119.676 190 121" stroke="#141414" stroke-width="3"/>
<path d="M79.5 146.699C87.7178 146.61 93.318 145.984 101.5 143.199C110.398 139.529 115.093 137.639 123 134.699C130.312 131.496 134.486 129.89 142 127.199C148.191 125.271 151.811 124.634 158.5 124.199C164.759 123.734 167.55 124.173 172.08 124.612C172.688 124.671 173.294 124.8 173.881 124.971C175.197 125.355 177.735 126.092 179.948 127C180.969 127.419 182.09 127.807 183.09 128.274C184.978 129.157 188.063 130.875 190 132.199" stroke="#141414" stroke-width="3"/>
<path d="M79.5 157.699C87.7178 157.61 93.318 156.984 101.5 154.199C110.398 150.529 115.093 148.639 123 145.699C130.312 142.496 134.486 140.89 142 138.199C148.191 136.271 151.811 135.634 158.5 135.199C164.759 134.734 167.55 135.173 172.08 135.612C172.688 135.671 173.294 135.8 173.881 135.971C175.197 136.355 177.735 137.092 179.948 138C180.969 138.419 182.09 138.807 183.09 139.274C184.978 140.157 188.063 141.875 190 143.199" stroke="#141414" stroke-width="3"/>
<path d="M79.5 168.699C87.7178 168.61 93.318 167.984 101.5 165.199C110.398 161.529 115.093 159.639 123 156.699C130.312 153.496 134.486 151.89 142 149.199C148.191 147.271 151.811 146.634 158.5 146.199C164.759 145.734 167.55 146.173 172.08 146.612C172.688 146.671 173.294 146.8 173.881 146.971C175.197 147.355 177.735 148.092 179.948 149C180.969 149.419 182.09 149.807 183.09 150.274C184.978 151.157 188.063 152.875 190 154.199" stroke="#141414" stroke-width="3"/>
<path d="M79.5 179.699C87.7178 179.61 93.318 178.984 101.5 176.199C110.398 172.529 115.093 170.639 123 167.699C130.312 164.496 134.486 162.89 142 160.199C148.191 158.271 151.811 157.634 158.5 157.199C164.759 156.734 167.55 157.173 172.08 157.612C172.688 157.671 173.294 157.8 173.881 157.971C175.197 158.355 177.735 159.092 179.948 160C180.969 160.419 182.09 160.807 183.09 161.274C184.978 162.157 188.063 163.875 190 165.199" stroke="#141414" stroke-width="3"/>
<path d="M79.5 191.699C87.7178 191.61 93.318 190.984 101.5 188.199C110.398 184.529 115.093 182.639 123 179.699C130.312 176.496 134.486 174.89 142 172.199C148.191 170.271 151.811 169.634 158.5 169.199C164.759 168.734 167.55 169.173 172.08 169.612C172.688 169.671 173.294 169.8 173.881 169.971C175.197 170.355 177.735 171.092 179.948 172C180.969 172.419 182.09 172.807 183.09 173.274C184.978 174.157 188.063 175.875 190 177.199" stroke="#141414" stroke-width="3"/>
<path d="M79.5 202.699C87.7178 202.61 93.318 201.984 101.5 199.199C110.398 195.529 115.093 193.639 123 190.699C130.312 187.496 134.486 185.89 142 183.199C148.191 181.271 151.811 180.634 158.5 180.199C164.759 179.734 167.55 180.173 172.08 180.612C172.688 180.671 173.294 180.8 173.881 180.971C175.197 181.355 177.735 182.092 179.948 183C180.969 183.419 182.09 183.807 183.09 184.274C184.978 185.157 188.063 186.875 190 188.199" stroke="#141414" stroke-width="3"/>
<path d="M79.5 214.699C87.7178 214.61 93.318 213.984 101.5 211.199C110.398 207.529 115.093 205.639 123 202.699C130.312 199.496 134.486 197.89 142 195.199C148.191 193.271 151.811 192.634 158.5 192.199C164.759 191.734 167.55 192.173 172.08 192.612C172.688 192.671 173.294 192.8 173.881 192.971C175.197 193.355 177.735 194.092 179.948 195C180.969 195.419 182.09 195.807 183.09 196.274C184.978 197.157 188.063 198.875 190 200.199" stroke="#141414" stroke-width="3"/>
<path d="M79.5 225.699C87.7178 225.61 93.318 224.984 101.5 222.199C110.398 218.529 115.093 216.639 123 213.699C130.312 210.496 134.486 208.89 142 206.199C148.191 204.271 151.811 203.634 158.5 203.199C164.759 202.734 167.55 203.173 172.08 203.612C172.688 203.671 173.294 203.8 173.881 203.971C175.197 204.355 177.735 205.092 179.948 206C180.969 206.419 182.09 206.807 183.09 207.274C184.978 208.157 188.063 209.875 190 211.199" stroke="#141414" stroke-width="3"/>
<path d="M79.5 237.699C87.7178 237.61 93.318 236.984 101.5 234.199C110.398 230.529 115.093 228.639 123 225.699C130.312 222.496 134.486 220.89 142 218.199C148.191 216.271 151.811 215.634 158.5 215.199C164.759 214.734 167.55 215.173 172.08 215.612C172.688 215.671 173.294 215.8 173.881 215.971C175.197 216.355 177.735 217.092 179.948 218C180.969 218.419 182.09 218.807 183.09 219.274C184.978 220.157 188.063 221.875 190 223.199" stroke="#141414" stroke-width="3"/>
<path d="M79.5 248.699C87.7178 248.61 93.318 247.984 101.5 245.199C110.398 241.529 115.093 239.639 123 236.699C130.312 233.496 134.486 231.89 142 229.199C148.191 227.271 151.811 226.634 158.5 226.199C164.759 225.734 167.55 226.173 172.08 226.612C172.688 226.671 173.294 226.8 173.881 226.971C175.197 227.355 177.735 228.092 179.948 229C180.969 229.419 182.09 229.807 183.09 230.274C184.978 231.157 188.063 232.875 190 234.199" stroke="#141414" stroke-width="3"/>
<path d="M79.5 259.699C87.7178 259.61 93.318 258.984 101.5 256.199C110.398 252.529 115.093 250.639 123 247.699C130.312 244.496 134.486 242.89 142 240.199C148.191 238.271 151.811 237.634 158.5 237.199C164.759 236.734 167.55 237.173 172.08 237.612C172.688 237.671 173.294 237.8 173.881 237.971C175.197 238.355 177.735 239.092 179.948 240C180.969 240.419 182.09 240.807 183.09 241.274C184.978 242.157 188.063 243.875 190 245.199" stroke="#141414" stroke-width="3"/>
<path d="M79.5 270.699C87.7178 270.61 93.318 269.984 101.5 267.199C110.398 263.529 115.093 261.639 123 258.699C130.312 255.496 134.486 253.89 142 251.199C148.191 249.271 151.811 248.634 158.5 248.199C164.759 247.734 167.55 248.173 172.08 248.612C172.688 248.671 173.294 248.8 173.881 248.971C175.197 249.355 177.735 250.092 179.948 251C180.969 251.419 182.09 251.807 183.09 252.274C184.978 253.157 188.063 254.875 190 256.199" stroke="#141414" stroke-width="3"/>
<path d="M79.5 281.699C87.7178 281.61 93.318 280.984 101.5 278.199C110.398 274.529 115.093 272.639 123 269.699C130.312 266.496 134.486 264.89 142 262.199C148.191 260.271 151.811 259.634 158.5 259.199C164.759 258.734 167.55 259.173 172.08 259.612C172.688 259.671 173.294 259.8 173.881 259.971C175.197 260.355 177.735 261.092 179.948 262C180.969 262.419 182.09 262.807 183.09 263.274C184.978 264.157 188.063 265.875 190 267.199" stroke="#141414" stroke-width="3"/>
<path d="M204 307V228.5" stroke="#141414" stroke-width="5"/>
<path d="M60.5 105V304.91C60.5 306.804 61.57 308.535 63.2639 309.382L66.8749 311.187C67.2896 311.395 67.7328 311.544 68.1889 311.628C73.157 312.54 75.8713 312.764 80 312.5C87.867 311.816 92.0362 311.284 98.5996 310.074C98.865 310.025 99.1307 309.953 99.3845 309.861C107.074 307.081 110.614 305.429 116.5 302.5C123.893 299.572 127.493 298.07 133.5 295.5C139.159 293.447 142.333 292.447 148 291C152.464 290.065 154.984 289.748 159.5 289.5C163.32 289.484 165.265 289.61 168.5 290C174.246 291.123 176.844 291.928 181 293.5L187.063 295.832C187.354 295.944 187.634 296.083 187.899 296.247C191.081 298.217 192.946 299.404 196 301.5L200.733 305.286C200.911 305.428 201.073 305.588 201.219 305.763V305.763C202.46 307.252 204.694 307.398 206.118 306.083L209.71 302.767C209.903 302.589 210.11 302.427 210.328 302.281L216 298.5C218.535 296.58 219.814 295.768 222 294.5C224.805 292.871 226.45 292.23 229.5 291.5C232.102 290.935 233.608 290.611 235.99 290.108C236.329 290.036 236.675 290 237.021 290H245" stroke="#141414" stroke-width="5"/>
<path d="M190 92.5C170.43 83.5396 159.245 82.4863 140 89.5C120.871 96.4715 112.98 101.575 85.501 107.885C85.1736 107.96 84.8286 108.004 84.4927 108.01C75.7877 108.154 69.1158 106.803 63.2761 105.047C61.2922 104.451 59.1291 105.055 57.8103 106.653L35.1439 134.114C34.4044 135.01 34 136.135 34 137.297V334.38C34 337.141 36.2386 339.38 39 339.38H186.534C187.491 339.38 188.427 339.658 189.24 340.162C192.763 342.341 195.3 343.509 199.585 344.999C199.861 345.095 200.145 345.166 200.433 345.21C204.749 345.866 204.935 345.513 208 344.763C213.536 342.808 216.027 341.983 219.28 340.109C220.085 339.646 220.992 339.38 221.921 339.38H237.5" stroke="#141414" stroke-width="6"/>
<path d="M48 118V320.5C48.1472 321.928 48 323.79 49.5 324C51 324.21 85.5 327.239 94.5 326.239C103.5 325.239 121 320.5 128.5 318.5C136 316.5 148 314 155.5 314C158.927 314 164.154 314.244 169 315.647C174.76 317.315 179.981 320.207 181 320.5C182.792 321.016 190.288 325.328 190.953 325.711C190.988 325.732 191.018 325.748 191.054 325.766L194 327.239C195.116 327.865 195.892 328.202 197.5 328.739C199.162 329.272 200.146 329.493 202 329.739C204.022 330.069 206.5 330.239 208.5 329.739C210.5 329.239 210.5 329.239 212 328.239C213.5 327.239 213.5 327.239 215 326.239C216.355 325.335 217.138 324.8 218.162 324.372C218.384 324.28 218.623 324.239 218.863 324.239H223H228H237.5" stroke="#141414" stroke-width="3"/>
<path d="M53.5 113V313C53.6396 314.354 54.5656 316.21 55.7949 316.898C55.928 316.972 56.0692 317.013 56.2192 317.04C64.351 318.513 83.5992 319.239 94.5 318.5C105.5 317.755 124.5 311.5 128.5 310.5C132.5 309.5 149.46 306.371 152 306C154.54 305.629 160 304.577 163.5 305C167 305.423 172.5 306.5 177 309C181.24 311.355 188.142 315.486 188.927 315.956C188.977 315.986 189.024 316.017 189.072 316.052L194.5 320C197.277 321.534 198.935 322.086 202 322.739C204.022 323.069 206.5 323.239 208.5 322.739C210.5 322.239 210.5 322.239 212 321.239C213.5 320.239 213.5 320.239 215 319.239C216.355 318.335 217.138 317.8 218.162 317.372C218.384 317.28 218.623 317.239 218.863 317.239H223H228H237.5" stroke="#141414" stroke-width="3"/>
<path d="M41.5 127.5V327.5C41.6362 328.821 41.6656 331.049 42.7225 331.838C42.8934 331.966 43.1111 332.011 43.3235 332.031C62.5342 333.849 74.978 334.609 94.5 333C107.935 332.002 121.5 329.5 129 327.5C136.5 325.5 150 324 155.5 324C161 324 178.5 327.517 181 328.5C183.392 329.44 190.362 333.377 190.959 333.715C190.99 333.733 191.016 333.746 191.047 333.762L194 335.239C195.116 335.865 195.892 336.202 197.5 336.739C199.162 337.272 200.146 337.493 202 337.739C204.023 338.069 206.5 338.239 208.5 337.739C210.5 337.239 210.5 337.239 212 336.239C213.5 335.239 213.5 335.239 215 334.239C216.355 333.335 217.138 332.8 218.162 332.372C218.384 332.28 218.623 332.239 218.863 332.239H223H228H237.5" stroke="#141414" stroke-width="3"/>
<path d="M35.5 338.5L61 308" stroke="#141414" stroke-width="5"/>
<path d="M188.5 340L202.155 310.488C202.876 308.93 205.094 308.944 205.796 310.51L219 340" stroke="#141414" stroke-width="5"/>
</g>
<path d="M203 5L4 103.906V353L204 452.5M203 5L403 104V353L204 452.5M203 5L154 228H253L204 452.5" stroke="#141414" stroke-width="8"/>
</svg>
